<svg width="185" height="254" viewBox="0 0 185 254" fill="none" xmlns="http://www.w3.org/2000/svg">
<rect x="113" y="154" width="56" height="56" rx="28" fill="#E9AD79" fill-opacity="0.2"/>
<path d="M149 181.75H133C132.77 181.75 132.56 181.65 132.42 181.47C132.28 181.3 132.22 181.06 132.27 180.84L133.4 175.44C133.77 173.69 134.52 172.08 137.49 172.08H144.52C147.49 172.08 148.24 173.7 148.61 175.44L149.74 180.85C149.79 181.07 149.73 181.3 149.59 181.48C149.44 181.65 149.23 181.75 149 181.75ZM133.92 180.25H148.07L147.13 175.75C146.85 174.44 146.52 173.58 144.51 173.58H137.49C135.48 173.58 135.15 174.44 134.87 175.75L133.92 180.25Z" fill="#E9AD79"/>
<path d="M148.96 192.75H147.08C145.46 192.75 145.15 191.82 144.95 191.21L144.75 190.61C144.49 189.85 144.46 189.75 143.56 189.75H138.44C137.54 189.75 137.48 189.92 137.25 190.61L137.05 191.21C136.84 191.83 136.54 192.75 134.92 192.75H133.04C132.25 192.75 131.49 192.42 130.96 191.84C130.44 191.27 130.19 190.51 130.26 189.75L130.82 183.66C130.97 182.01 131.41 180.25 134.62 180.25H147.38C150.59 180.25 151.02 182.01 151.18 183.66L151.74 189.75C151.81 190.51 151.56 191.27 151.04 191.84C150.51 192.42 149.75 192.75 148.96 192.75ZM138.44 188.25H143.56C145.38 188.25 145.81 189.06 146.17 190.12L146.38 190.74C146.55 191.25 146.55 191.26 147.09 191.26H148.97C149.34 191.26 149.69 191.11 149.94 190.84C150.18 190.58 150.29 190.25 150.26 189.9L149.7 183.81C149.57 182.46 149.41 181.76 147.4 181.76H134.62C132.6 181.76 132.44 182.46 132.32 183.81L131.76 189.9C131.73 190.25 131.84 190.58 132.08 190.84C132.32 191.11 132.68 191.26 133.05 191.26H134.93C135.47 191.26 135.47 191.25 135.64 190.75L135.84 190.14C136.09 189.34 136.46 188.25 138.44 188.25Z" fill="#E9AD79"/>
<path d="M133 178.75H132C131.59 178.75 131.25 178.41 131.25 178C131.25 177.59 131.59 177.25 132 177.25H133C133.41 177.25 133.75 177.59 133.75 178C133.75 178.41 133.41 178.75 133 178.75Z" fill="#E9AD79"/>
<path d="M150 178.75H149C148.59 178.75 148.25 178.41 148.25 178C148.25 177.59 148.59 177.25 149 177.25H150C150.41 177.25 150.75 177.59 150.75 178C150.75 178.41 150.41 178.75 150 178.75Z" fill="#E9AD79"/>
<path d="M141 175.75C140.59 175.75 140.25 175.41 140.25 175V173C140.25 172.59 140.59 172.25 141 172.25C141.41 172.25 141.75 172.59 141.75 173V175C141.75 175.41 141.41 175.75 141 175.75Z" fill="#E9AD79"/>
<path d="M142.5 175.75H139.5C139.09 175.75 138.75 175.41 138.75 175C138.75 174.59 139.09 174.25 139.5 174.25H142.5C142.91 174.25 143.25 174.59 143.25 175C143.25 175.41 142.91 175.75 142.5 175.75Z" fill="#E9AD79"/>
<path d="M138 185.75H135C134.59 185.75 134.25 185.41 134.25 185C134.25 184.59 134.59 184.25 135 184.25H138C138.41 184.25 138.75 184.59 138.75 185C138.75 185.41 138.41 185.75 138 185.75Z" fill="#E9AD79"/>
<path d="M147 185.75H144C143.59 185.75 143.25 185.41 143.25 185C143.25 184.59 143.59 184.25 144 184.25H147C147.41 184.25 147.75 184.59 147.75 185C147.75 185.41 147.41 185.75 147 185.75Z" fill="#E9AD79"/>
<rect y="32" width="72" height="72" rx="36" fill="#A486C2" fill-opacity="0.15"/>
<path d="M36.0129 74.4285C34.92 74.4285 33.8143 74.1456 32.9529 73.5928L25.2129 68.5399C23.7729 67.6014 22.9114 66.0199 22.9114 64.2971C22.9114 62.5742 23.7729 60.9928 25.2129 60.0542L32.9657 55.0142C34.6886 53.8956 37.3757 53.8956 39.0857 55.0271L46.7872 60.0799C48.2143 61.0185 49.0757 62.5999 49.0757 64.3099C49.0757 66.0199 48.2143 67.6014 46.7872 68.5399L39.0857 73.5928C38.2243 74.1585 37.1186 74.4285 36.0129 74.4285ZM36.0129 56.1071C35.28 56.1071 34.5472 56.2742 34.02 56.6342L26.28 61.6742C25.38 62.2656 24.8529 63.2171 24.8529 64.2971C24.8529 65.3771 25.3672 66.3285 26.28 66.9199L34.02 71.9728C35.0872 72.6671 36.9643 72.6671 38.0314 71.9728L45.7329 66.9199C46.6329 66.3285 47.1472 65.3771 47.1472 64.2971C47.1472 63.2171 46.6329 62.2656 45.7329 61.6742L38.0314 56.6214C37.4914 56.2871 36.7586 56.1071 36.0129 56.1071Z" fill="#A486C2"/>
<path d="M36 81.8215C35.4343 81.8215 34.8557 81.7443 34.3929 81.59L30.2914 80.2272C28.35 79.5843 26.82 77.4629 26.8329 75.4186L26.8457 69.3886C26.8457 68.8615 27.2829 68.4243 27.81 68.4243C28.3372 68.4243 28.7743 68.8615 28.7743 69.3886L28.7614 75.4186C28.7614 76.6272 29.7643 78.0157 30.9086 78.4015L35.01 79.7643C35.5243 79.9315 36.4757 79.9315 36.99 79.7643L41.0914 78.4015C42.2357 78.0157 43.2386 76.6272 43.2386 75.4315V69.4657C43.2386 68.9386 43.6757 68.5015 44.2029 68.5015C44.73 68.5015 45.1672 68.9386 45.1672 69.4657V75.4315C45.1672 77.4757 43.65 79.5843 41.7086 80.24L37.6072 81.6029C37.1443 81.7443 36.5657 81.8215 36 81.8215Z" fill="#A486C2"/>
<path d="M48.0857 72.8214C47.5586 72.8214 47.1214 72.3843 47.1214 71.8572V64.1429C47.1214 63.6157 47.5586 63.1786 48.0857 63.1786C48.6129 63.1786 49.05 63.6157 49.05 64.1429V71.8572C49.05 72.3843 48.6129 72.8214 48.0857 72.8214Z" fill="#A486C2"/>
<rect x="11" y="222" width="32" height="32" rx="16" fill="#6C7CD0" fill-opacity="0.15"/>
<path d="M28.1657 244.143H25.4286C24.5028 244.143 23.6628 243.783 23.0571 243.12C22.4514 242.463 22.16 241.594 22.24 240.674C22.4343 238.331 24.5028 236.429 26.8571 236.429C29.0228 236.429 31.0686 238.166 31.4286 240.297C31.6 241.314 31.3486 242.274 30.7314 243.006C30.1028 243.737 29.1943 244.143 28.1657 244.143ZM26.8514 237.286C24.9371 237.286 23.2514 238.84 23.0914 240.749C23.0343 241.429 23.2457 242.063 23.6857 242.543C24.1257 243.023 24.7428 243.286 25.4228 243.286H28.16C28.9314 243.286 29.6114 242.989 30.0628 242.457C30.5143 241.926 30.6971 241.206 30.5714 240.44C30.2857 238.703 28.6171 237.286 26.8514 237.286Z" fill="#6C7CD0"/>
<path d="M26.1257 235.857C25.1028 235.857 24.2686 235.023 24.2686 234C24.2686 232.977 25.1028 232.143 26.1257 232.143C27.1486 232.143 27.9828 232.977 27.9828 234C27.9828 235.023 27.1543 235.857 26.1257 235.857ZM26.1257 233C25.5771 233 25.1257 233.451 25.1257 234C25.1257 234.549 25.5771 235 26.1257 235C26.6743 235 27.1257 234.549 27.1257 234C27.1257 233.451 26.68 233 26.1257 233Z" fill="#6C7CD0"/>
<path d="M30.0286 236.543C29.16 236.543 28.4572 235.84 28.4572 234.971C28.4572 234.103 29.16 233.4 30.0286 233.4C30.8972 233.4 31.6 234.103 31.6 234.971C31.6 235.84 30.8972 236.543 30.0286 236.543ZM30.0286 234.257C29.6343 234.257 29.3143 234.577 29.3143 234.971C29.3143 235.366 29.6343 235.686 30.0286 235.686C30.4229 235.686 30.7429 235.366 30.7429 234.971C30.7429 234.577 30.4229 234.257 30.0286 234.257Z" fill="#6C7CD0"/>
<path d="M32.1429 238.829C31.4343 238.829 30.8571 238.251 30.8571 237.543C30.8571 236.834 31.4343 236.257 32.1429 236.257C32.8514 236.257 33.4286 236.834 33.4286 237.543C33.4286 238.251 32.8514 238.829 32.1429 238.829ZM32.1429 237.114C31.9086 237.114 31.7143 237.309 31.7143 237.543C31.7143 237.777 31.9086 237.971 32.1429 237.971C32.3771 237.971 32.5714 237.777 32.5714 237.543C32.5714 237.309 32.3771 237.114 32.1429 237.114Z" fill="#6C7CD0"/>
<path d="M22.4114 237.686C21.5429 237.686 20.84 236.983 20.84 236.114C20.84 235.246 21.5429 234.543 22.4114 234.543C23.28 234.543 23.9829 235.246 23.9829 236.114C23.9829 236.983 23.28 237.686 22.4114 237.686ZM22.4114 235.4C22.0171 235.4 21.6971 235.72 21.6971 236.114C21.6971 236.509 22.0171 236.829 22.4114 236.829C22.8057 236.829 23.1257 236.509 23.1257 236.114C23.1257 235.72 22.8057 235.4 22.4114 235.4Z" fill="#6C7CD0"/>
<rect x="145" width="40" height="40" rx="20" fill="#E79FBD" fill-opacity="0.15"/>
<path d="M169.421 24.1071H161.814C161.107 24.1071 160.429 23.8071 159.95 23.2857C159.471 22.7643 159.229 22.0643 159.286 21.3571L159.879 14.2428C159.9 14.0214 159.821 13.8071 159.671 13.6428C159.521 13.4786 159.314 13.3928 159.093 13.3928H157.857C157.564 13.3928 157.321 13.15 157.321 12.8571C157.321 12.5643 157.564 12.3214 157.857 12.3214H159.1C159.621 12.3214 160.114 12.5428 160.464 12.9214C160.657 13.1357 160.8 13.3857 160.879 13.6643H169.8C170.521 13.6643 171.186 13.95 171.671 14.4643C172.15 14.9857 172.393 15.6643 172.336 16.3857L171.95 21.7428C171.871 23.05 170.729 24.1071 169.421 24.1071ZM160.914 14.7286L160.357 21.4428C160.321 21.8571 160.457 22.25 160.736 22.5571C161.014 22.8643 161.4 23.0285 161.814 23.0285H169.421C170.164 23.0285 170.836 22.4 170.893 21.6571L171.279 16.3C171.307 15.8786 171.171 15.4786 170.893 15.1857C170.614 14.8857 170.229 14.7214 169.807 14.7214H160.914V14.7286Z" fill="#E79FBD"/>
<path d="M168.036 27.6786C167.25 27.6786 166.607 27.0357 166.607 26.25C166.607 25.4643 167.25 24.8214 168.036 24.8214C168.821 24.8214 169.464 25.4643 169.464 26.25C169.464 27.0357 168.821 27.6786 168.036 27.6786ZM168.036 25.8928C167.836 25.8928 167.679 26.05 167.679 26.25C167.679 26.45 167.836 26.6071 168.036 26.6071C168.236 26.6071 168.393 26.45 168.393 26.25C168.393 26.05 168.236 25.8928 168.036 25.8928Z" fill="#E79FBD"/>
<path d="M162.321 27.6786C161.536 27.6786 160.893 27.0357 160.893 26.25C160.893 25.4643 161.536 24.8214 162.321 24.8214C163.107 24.8214 163.75 25.4643 163.75 26.25C163.75 27.0357 163.107 27.6786 162.321 27.6786ZM162.321 25.8928C162.121 25.8928 161.964 26.05 161.964 26.25C161.964 26.45 162.121 26.6071 162.321 26.6071C162.521 26.6071 162.679 26.45 162.679 26.25C162.679 26.05 162.521 25.8928 162.321 25.8928Z" fill="#E79FBD"/>
<path d="M171.429 17.6786H162.857C162.564 17.6786 162.321 17.4357 162.321 17.1429C162.321 16.85 162.564 16.6072 162.857 16.6072H171.429C171.721 16.6072 171.964 16.85 171.964 17.1429C171.964 17.4357 171.721 17.6786 171.429 17.6786Z" fill="#E79FBD"/>
</svg>
