<svg width="295" height="157" viewBox="0 0 295 157" fill="none" xmlns="http://www.w3.org/2000/svg">
<rect y="90" width="56" height="56" rx="28" fill="#E9AD79" fill-opacity="0.2"/>
<path d="M35.9996 117.75H19.9996C19.7696 117.75 19.5596 117.65 19.4196 117.47C19.2796 117.3 19.2196 117.06 19.2696 116.84L20.3996 111.44C20.7696 109.69 21.5196 108.08 24.4896 108.08H31.5196C34.4896 108.08 35.2396 109.7 35.6096 111.44L36.7396 116.85C36.7896 117.07 36.7296 117.3 36.5896 117.48C36.4396 117.65 36.2296 117.75 35.9996 117.75ZM20.9196 116.25H35.0696L34.1296 111.75C33.8496 110.44 33.5196 109.58 31.5096 109.58H24.4896C22.4796 109.58 22.1496 110.44 21.8696 111.75L20.9196 116.25Z" fill="#E9AD79"/>
<path d="M35.9596 128.75H34.0796C32.4596 128.75 32.1496 127.82 31.9496 127.21L31.7496 126.61C31.4896 125.85 31.4596 125.75 30.5596 125.75H25.4396C24.5396 125.75 24.4796 125.92 24.2496 126.61L24.0496 127.21C23.8396 127.83 23.5396 128.75 21.9196 128.75H20.0396C19.2496 128.75 18.4896 128.42 17.9596 127.84C17.4396 127.27 17.1896 126.51 17.2596 125.75L17.8196 119.66C17.9696 118.01 18.4096 116.25 21.6196 116.25H34.3796C37.5896 116.25 38.0196 118.01 38.1796 119.66L38.7396 125.75C38.8096 126.51 38.5596 127.27 38.0396 127.84C37.5096 128.42 36.7496 128.75 35.9596 128.75ZM25.4396 124.25H30.5596C32.3796 124.25 32.8096 125.06 33.1696 126.12L33.3796 126.74C33.5496 127.25 33.5496 127.26 34.0896 127.26H35.9696C36.3396 127.26 36.6896 127.11 36.9396 126.84C37.1796 126.58 37.2896 126.25 37.2596 125.9L36.6996 119.81C36.5696 118.46 36.4096 117.76 34.3996 117.76H21.6196C19.5996 117.76 19.4396 118.46 19.3196 119.81L18.7596 125.9C18.7296 126.25 18.8396 126.58 19.0796 126.84C19.3196 127.11 19.6796 127.26 20.0496 127.26H21.9296C22.4696 127.26 22.4696 127.25 22.6396 126.75L22.8396 126.14C23.0896 125.34 23.4596 124.25 25.4396 124.25Z" fill="#E9AD79"/>
<path d="M19.9996 114.75H18.9996C18.5896 114.75 18.2496 114.41 18.2496 114C18.2496 113.59 18.5896 113.25 18.9996 113.25H19.9996C20.4096 113.25 20.7496 113.59 20.7496 114C20.7496 114.41 20.4096 114.75 19.9996 114.75Z" fill="#E9AD79"/>
<path d="M36.9995 114.75H35.9995C35.5895 114.75 35.2495 114.41 35.2495 114C35.2495 113.59 35.5895 113.25 35.9995 113.25H36.9995C37.4095 113.25 37.7495 113.59 37.7495 114C37.7495 114.41 37.4095 114.75 36.9995 114.75Z" fill="#E9AD79"/>
<path d="M27.9995 111.75C27.5895 111.75 27.2495 111.41 27.2495 111V109C27.2495 108.59 27.5895 108.25 27.9995 108.25C28.4095 108.25 28.7495 108.59 28.7495 109V111C28.7495 111.41 28.4095 111.75 27.9995 111.75Z" fill="#E9AD79"/>
<path d="M29.4996 111.75H26.4996C26.0896 111.75 25.7496 111.41 25.7496 111C25.7496 110.59 26.0896 110.25 26.4996 110.25H29.4996C29.9096 110.25 30.2496 110.59 30.2496 111C30.2496 111.41 29.9096 111.75 29.4996 111.75Z" fill="#E9AD79"/>
<path d="M24.9996 121.75H21.9996C21.5896 121.75 21.2496 121.41 21.2496 121C21.2496 120.59 21.5896 120.25 21.9996 120.25H24.9996C25.4096 120.25 25.7496 120.59 25.7496 121C25.7496 121.41 25.4096 121.75 24.9996 121.75Z" fill="#E9AD79"/>
<path d="M33.9995 121.75H30.9995C30.5895 121.75 30.2495 121.41 30.2495 121C30.2495 120.59 30.5895 120.25 30.9995 120.25H33.9995C34.4095 120.25 34.7495 120.59 34.7495 121C34.7495 121.41 34.4095 121.75 33.9995 121.75Z" fill="#E9AD79"/>
<rect x="147" y="101" width="56" height="56" rx="28" fill="#C491DC" fill-opacity="0.15"/>
<path d="M171.58 139.55C171.36 139.55 171.13 139.51 170.92 139.42C170.45 139.22 170.09 138.83 169.93 138.34L169.49 137.02C169.29 136.42 169.47 135.67 169.91 135.22L172.18 132.94C172.21 132.91 172.25 132.8 172.25 132.75V130.28L167.69 132.25C167.08 132.51 166.46 132.48 165.99 132.17C165.52 131.86 165.24 131.3 165.24 130.65V129.36C165.24 128.38 165.94 127.33 166.83 126.98L172.24 124.64V121.8C172.24 120.59 173.09 119.2 174.17 118.64C174.69 118.38 175.29 118.38 175.8 118.64C176.89 119.2 177.74 120.58 177.74 121.79V124.63L183.18 126.97C184.07 127.35 184.75 128.37 184.75 129.36V130.65C184.75 131.31 184.48 131.86 184 132.17C183.52 132.48 182.91 132.51 182.3 132.26L177.74 130.29V132.76C177.74 132.8 177.78 132.9 177.81 132.93L180.09 135.22C180.53 135.66 180.71 136.43 180.51 137.02L180.07 138.34C179.9 138.83 179.54 139.22 179.06 139.41C178.59 139.6 178.07 139.58 177.62 139.36C177.57 139.33 177.52 139.3 177.47 139.26L175.14 137.3C175.06 137.23 174.9 137.24 174.83 137.3L172.5 139.26C172.46 139.3 172.41 139.33 172.36 139.35C172.12 139.49 171.85 139.55 171.58 139.55ZM172.56 128.64C172.79 128.64 173.01 128.7 173.2 128.83C173.55 129.06 173.75 129.45 173.75 129.91V132.76C173.75 133.19 173.54 133.7 173.24 134L170.97 136.28C170.93 136.33 170.89 136.48 170.91 136.54L171.35 137.87C171.38 137.97 171.45 138.01 171.49 138.03C171.52 138.04 171.57 138.06 171.63 138.04L173.87 136.15C174.5 135.61 175.49 135.61 176.12 136.15L178.35 138.03C178.42 138.04 178.47 138.03 178.5 138.02C178.54 138 178.62 137.96 178.65 137.86L179.09 136.54C179.11 136.47 179.07 136.32 179.03 136.28L176.76 134C176.46 133.72 176.24 133.2 176.24 132.76V129.91C176.24 129.46 176.43 129.07 176.77 128.84C177.11 128.61 177.55 128.58 177.97 128.76L182.89 130.88C183.04 130.94 183.14 130.94 183.17 130.92C183.2 130.9 183.24 130.81 183.24 130.65V129.36C183.24 128.98 182.92 128.49 182.58 128.35L177 125.94C176.56 125.75 176.25 125.27 176.25 124.79V121.79C176.25 121.13 175.73 120.28 175.13 119.98C175.05 119.94 174.95 119.94 174.86 119.98C174.28 120.28 173.75 121.15 173.75 121.8V124.8C173.75 125.27 173.44 125.76 173 125.95L167.42 128.36C167.07 128.5 166.75 128.99 166.75 129.36V130.65C166.75 130.81 166.79 130.9 166.82 130.92C166.85 130.94 166.95 130.94 167.1 130.88L172.01 128.76C172.19 128.68 172.38 128.64 172.56 128.64Z" fill="#C491DC"/>
<rect x="78" y="88" width="40" height="40" rx="20" fill="#E79FBD" fill-opacity="0.15"/>
<path d="M102.421 112.107H94.8141C94.107 112.107 93.4284 111.807 92.9499 111.286C92.4713 110.764 92.2284 110.064 92.2856 109.357L92.8784 102.243C92.8999 102.021 92.8213 101.807 92.6713 101.643C92.5213 101.479 92.3141 101.393 92.0927 101.393H90.857C90.5641 101.393 90.3213 101.15 90.3213 100.857C90.3213 100.564 90.5641 100.321 90.857 100.321H92.0999C92.6213 100.321 93.1141 100.543 93.4641 100.921C93.657 101.136 93.7999 101.386 93.8784 101.664H102.8C103.521 101.664 104.186 101.95 104.671 102.464C105.15 102.986 105.393 103.664 105.336 104.386L104.95 109.743C104.871 111.05 103.728 112.107 102.421 112.107ZM93.9141 102.729L93.357 109.443C93.3213 109.857 93.457 110.25 93.7356 110.557C94.0141 110.864 94.3999 111.029 94.8141 111.029H102.421C103.164 111.029 103.836 110.4 103.893 109.657L104.278 104.3C104.307 103.879 104.171 103.479 103.893 103.186C103.614 102.886 103.228 102.721 102.807 102.721H93.9141V102.729Z" fill="#E79FBD"/>
<path d="M101.036 115.679C100.25 115.679 99.6069 115.036 99.6069 114.25C99.6069 113.464 100.25 112.821 101.036 112.821C101.821 112.821 102.464 113.464 102.464 114.25C102.464 115.036 101.821 115.679 101.036 115.679ZM101.036 113.893C100.836 113.893 100.678 114.05 100.678 114.25C100.678 114.45 100.836 114.607 101.036 114.607C101.236 114.607 101.393 114.45 101.393 114.25C101.393 114.05 101.236 113.893 101.036 113.893Z" fill="#E79FBD"/>
<path d="M95.3214 115.679C94.5357 115.679 93.8928 115.036 93.8928 114.25C93.8928 113.464 94.5357 112.821 95.3214 112.821C96.1071 112.821 96.75 113.464 96.75 114.25C96.75 115.036 96.1071 115.679 95.3214 115.679ZM95.3214 113.893C95.1214 113.893 94.9643 114.05 94.9643 114.25C94.9643 114.45 95.1214 114.607 95.3214 114.607C95.5214 114.607 95.6785 114.45 95.6785 114.25C95.6785 114.05 95.5214 113.893 95.3214 113.893Z" fill="#E79FBD"/>
<path d="M104.428 105.679H95.857C95.5641 105.679 95.3213 105.436 95.3213 105.143C95.3213 104.85 95.5641 104.607 95.857 104.607H104.428C104.721 104.607 104.964 104.85 104.964 105.143C104.964 105.436 104.721 105.679 104.428 105.679Z" fill="#E79FBD"/>
<rect x="260" y="111" width="32" height="32" rx="16" fill="#6C7CD0" fill-opacity="0.15"/>
<path d="M277.166 133.143H274.429C273.503 133.143 272.663 132.783 272.057 132.12C271.451 131.463 271.16 130.594 271.24 129.674C271.434 127.331 273.503 125.429 275.857 125.429C278.023 125.429 280.069 127.166 280.429 129.297C280.6 130.314 280.349 131.274 279.731 132.006C279.103 132.737 278.194 133.143 277.166 133.143ZM275.851 126.286C273.937 126.286 272.251 127.84 272.091 129.749C272.034 130.429 272.246 131.063 272.686 131.543C273.126 132.023 273.743 132.286 274.423 132.286H277.16C277.931 132.286 278.611 131.989 279.063 131.457C279.514 130.926 279.697 130.206 279.571 129.44C279.286 127.703 277.617 126.286 275.851 126.286Z" fill="#6C7CD0"/>
<path d="M275.126 124.857C274.103 124.857 273.269 124.023 273.269 123C273.269 121.977 274.103 121.143 275.126 121.143C276.149 121.143 276.983 121.977 276.983 123C276.983 124.023 276.154 124.857 275.126 124.857ZM275.126 122C274.577 122 274.126 122.451 274.126 123C274.126 123.549 274.577 124 275.126 124C275.674 124 276.126 123.549 276.126 123C276.126 122.451 275.68 122 275.126 122Z" fill="#6C7CD0"/>
<path d="M279.028 125.543C278.16 125.543 277.457 124.84 277.457 123.971C277.457 123.103 278.16 122.4 279.028 122.4C279.897 122.4 280.6 123.103 280.6 123.971C280.6 124.84 279.897 125.543 279.028 125.543ZM279.028 123.257C278.634 123.257 278.314 123.577 278.314 123.971C278.314 124.366 278.634 124.686 279.028 124.686C279.423 124.686 279.743 124.366 279.743 123.971C279.743 123.577 279.423 123.257 279.028 123.257Z" fill="#6C7CD0"/>
<path d="M281.143 127.829C280.434 127.829 279.857 127.251 279.857 126.543C279.857 125.834 280.434 125.257 281.143 125.257C281.851 125.257 282.429 125.834 282.429 126.543C282.429 127.251 281.851 127.829 281.143 127.829ZM281.143 126.114C280.909 126.114 280.714 126.309 280.714 126.543C280.714 126.777 280.909 126.971 281.143 126.971C281.377 126.971 281.571 126.777 281.571 126.543C281.571 126.309 281.377 126.114 281.143 126.114Z" fill="#6C7CD0"/>
<path d="M271.411 126.686C270.543 126.686 269.84 125.983 269.84 125.114C269.84 124.246 270.543 123.543 271.411 123.543C272.28 123.543 272.983 124.246 272.983 125.114C272.983 125.983 272.28 126.686 271.411 126.686ZM271.411 124.4C271.017 124.4 270.697 124.72 270.697 125.114C270.697 125.509 271.017 125.829 271.411 125.829C271.806 125.829 272.126 125.509 272.126 125.114C272.126 124.72 271.806 124.4 271.411 124.4Z" fill="#6C7CD0"/>
<rect x="119" y="56" width="40" height="40" rx="20" fill="#84BA96" fill-opacity="0.15"/>
<path d="M141.143 83.6785H136.857C135.378 83.6785 134.178 82.4785 134.178 81V77.4143C134.178 77.2714 134.236 77.1357 134.336 77.0357C134.436 76.9357 134.571 76.8785 134.714 76.8785L137.493 76.8928C138.093 76.8928 138.693 77.0357 139.236 77.3071C139.636 77.5071 140.064 77.6071 140.514 77.6071H143.286C143.578 77.6071 143.821 77.85 143.821 78.1428V81C143.821 82.4785 142.621 83.6785 141.143 83.6785ZM135.25 77.95V81C135.25 81.8857 135.971 82.6071 136.857 82.6071H141.143C142.028 82.6071 142.75 81.8857 142.75 81V78.6785H140.514C139.9 78.6785 139.307 78.5428 138.757 78.2643C138.357 78.0643 137.928 77.9643 137.493 77.9643L135.25 77.95Z" fill="#84BA96"/>
<path d="M143.286 78.6786H140.514C139.9 78.6786 139.307 78.5429 138.757 78.2644C138.357 78.0644 137.928 77.9644 137.493 77.9644L134.714 77.9501C134.421 77.9501 134.178 77.7072 134.178 77.4144V75.1644C134.178 74.6929 134.421 74.1072 134.757 73.7715L136.271 72.2572C136.3 72.2286 136.321 72.1786 136.321 72.1358V71.0001C136.321 70.7072 136.564 70.4644 136.857 70.4644H141.143C141.436 70.4644 141.678 70.7072 141.678 71.0001V72.1358C141.678 72.1786 141.7 72.2286 141.728 72.2572L143.243 73.7715C143.578 74.1072 143.821 74.6929 143.821 75.1644V78.1429C143.821 78.4358 143.578 78.6786 143.286 78.6786ZM135.25 76.8786L137.493 76.8929C138.093 76.8929 138.693 77.0358 139.236 77.3072C139.636 77.5072 140.064 77.6072 140.514 77.6072H142.75V75.1644C142.75 74.9786 142.621 74.6644 142.486 74.5286L140.971 73.0144C140.743 72.7858 140.607 72.4644 140.607 72.1358V71.5358H137.393V72.1358C137.393 72.4644 137.257 72.7858 137.028 73.0144L135.514 74.5286C135.378 74.6644 135.25 74.9786 135.25 75.1644V76.8786Z" fill="#84BA96"/>
<path d="M143.286 79.3929C142.993 79.3929 142.75 79.15 142.75 78.8572V78.1429C142.75 77.85 142.993 77.6072 143.286 77.6072C143.579 77.6072 143.821 77.85 143.821 78.1429V78.8572C143.821 79.15 143.579 79.3929 143.286 79.3929Z" fill="#84BA96"/>
<path d="M134.714 78.6643C134.421 78.6643 134.178 78.4214 134.178 78.1285V77.4143C134.178 77.1214 134.421 76.8785 134.714 76.8785C135.007 76.8785 135.25 77.1214 135.25 77.4143V78.1285C135.25 78.4214 135.007 78.6643 134.714 78.6643Z" fill="#84BA96"/>
<path d="M140.786 71.5357H137.214C136.328 71.5357 135.607 70.8143 135.607 69.9286C135.607 69.0428 136.328 68.3214 137.214 68.3214H140.786C141.671 68.3214 142.393 69.0428 142.393 69.9286C142.393 70.8143 141.671 71.5357 140.786 71.5357ZM137.214 69.3928C136.921 69.3928 136.678 69.6357 136.678 69.9286C136.678 70.2214 136.921 70.4643 137.214 70.4643H140.786C141.078 70.4643 141.321 70.2214 141.321 69.9286C141.321 69.6357 141.078 69.3928 140.786 69.3928H137.214Z" fill="#84BA96"/>
<rect x="51" width="56" height="56" rx="28" fill="#8ACECF" fill-opacity="0.15"/>
<path d="M89 38.75H69C68.59 38.75 68.25 38.41 68.25 38C68.25 37.59 68.59 37.25 69 37.25H89C89.41 37.25 89.75 37.59 89.75 38C89.75 38.41 89.41 38.75 89 38.75Z" fill="#8ACECF"/>
<path d="M88 38.75H70C69.59 38.75 69.25 38.41 69.25 38V22C69.25 18.98 70.98 17.25 74 17.25H84C87.02 17.25 88.75 18.98 88.75 22V38C88.75 38.41 88.41 38.75 88 38.75ZM70.75 37.25H87.25V22C87.25 19.78 86.22 18.75 84 18.75H74C71.78 18.75 70.75 19.78 70.75 22V37.25Z" fill="#8ACECF"/>
<path d="M82 38.75H76C75.59 38.75 75.25 38.41 75.25 38V31.94C75.25 31.01 76.01 30.25 76.94 30.25H81.07C82 30.25 82.76 31.01 82.76 31.94V38C82.75 38.41 82.41 38.75 82 38.75ZM76.75 37.25H81.25V31.94C81.25 31.84 81.17 31.75 81.06 31.75H76.93C76.83 31.75 76.74 31.83 76.74 31.94V37.25H76.75Z" fill="#8ACECF"/>
<path d="M79 27.75C78.59 27.75 78.25 27.41 78.25 27V22C78.25 21.59 78.59 21.25 79 21.25C79.41 21.25 79.75 21.59 79.75 22V27C79.75 27.41 79.41 27.75 79 27.75Z" fill="#8ACECF"/>
<path d="M81.5 25.25H76.5C76.09 25.25 75.75 24.91 75.75 24.5C75.75 24.09 76.09 23.75 76.5 23.75H81.5C81.91 23.75 82.25 24.09 82.25 24.5C82.25 24.91 81.91 25.25 81.5 25.25Z" fill="#8ACECF"/>
<rect x="198" y="28" width="72" height="72" rx="36" fill="#C28686" fill-opacity="0.15"/>
<path d="M243 65.7485H221.143C220.616 65.7485 220.179 65.3114 220.179 64.7842C220.179 64.2571 220.616 63.8199 221.143 63.8199H243C243.527 63.8199 243.964 64.2571 243.964 64.7842C243.964 65.3114 243.527 65.7485 243 65.7485Z" fill="#C28686"/>
<path d="M238.14 76.5357H226.003C221.593 76.5357 220.179 75.1343 220.179 70.7757V61.7886C220.179 58.33 220.963 56.2857 224.949 56.0543C225.283 56.0414 225.63 56.0286 226.003 56.0286H238.14C242.55 56.0286 243.964 57.43 243.964 61.7886V70.9814C243.913 75.1857 242.499 76.5357 238.14 76.5357ZM226.003 57.9571C225.656 57.9571 225.334 57.97 225.039 57.9829C222.737 58.1243 222.107 58.6128 222.107 61.7886V70.7757C222.107 74.0671 222.647 74.6071 226.003 74.6071H238.14C241.457 74.6071 241.997 74.0928 242.036 70.9686V61.7886C242.036 58.4971 241.496 57.9571 238.14 57.9571H226.003Z" fill="#C28686"/>
<path d="M243 71.9457C242.756 71.9457 242.512 71.8557 242.344 71.6885C242.152 71.5085 242.036 71.2514 242.036 70.9814V61.7885C242.036 58.4971 241.496 57.9571 238.14 57.9571H226.003C225.656 57.9571 225.334 57.9699 225.039 57.9828C224.782 57.9957 224.524 57.8928 224.332 57.7128C224.139 57.5328 224.036 57.2757 224.036 57.0057C224.087 52.8142 225.502 51.4642 229.86 51.4642H241.997C246.407 51.4642 247.822 52.8657 247.822 57.2242V66.2114C247.822 69.67 247.037 71.7142 243.052 71.9457C243.039 71.9457 243.013 71.9457 243 71.9457ZM226.003 56.0285H238.14C242.55 56.0285 243.964 57.4299 243.964 61.7885V69.9142C245.456 69.6442 245.893 68.8728 245.893 66.2114V57.2242C245.893 53.9328 245.353 53.3928 241.997 53.3928H229.86C226.929 53.3928 226.17 53.7914 226.003 56.0285Z" fill="#C28686"/>
<path d="M227.52 72.4343H225.309C224.782 72.4343 224.345 71.9972 224.345 71.47C224.345 70.9429 224.782 70.5057 225.309 70.5057H227.52C228.048 70.5057 228.485 70.9429 228.485 71.47C228.485 71.9972 228.06 72.4343 227.52 72.4343Z" fill="#C28686"/>
<path d="M234.707 72.4343H230.284C229.757 72.4343 229.32 71.9972 229.32 71.47C229.32 70.9429 229.757 70.5057 230.284 70.5057H234.707C235.234 70.5057 235.671 70.9429 235.671 71.47C235.671 71.9972 235.247 72.4343 234.707 72.4343Z" fill="#C28686"/>
</svg>
