<svg width="188" height="244" viewBox="0 0 188 244" fill="none" xmlns="http://www.w3.org/2000/svg">
<rect x="5" width="40" height="40" rx="20" fill="#84BA96" fill-opacity="0.15"/>
<path d="M27.1429 27.6785H22.8572C21.3786 27.6785 20.1786 26.4785 20.1786 25V21.4143C20.1786 21.2714 20.2357 21.1357 20.3357 21.0357C20.4357 20.9357 20.5714 20.8785 20.7143 20.8785L23.4929 20.8928C24.0929 20.8928 24.6929 21.0357 25.2357 21.3071C25.6357 21.5071 26.0643 21.6071 26.5143 21.6071H29.2857C29.5786 21.6071 29.8214 21.85 29.8214 22.1428V25C29.8214 26.4785 28.6214 27.6785 27.1429 27.6785ZM21.25 21.95V25C21.25 25.8857 21.9714 26.6071 22.8572 26.6071H27.1429C28.0286 26.6071 28.75 25.8857 28.75 25V22.6785H26.5143C25.9 22.6785 25.3071 22.5428 24.7571 22.2643C24.3571 22.0643 23.9286 21.9643 23.4929 21.9643L21.25 21.95Z" fill="#84BA96"/>
<path d="M29.2857 22.6786H26.5143C25.9 22.6786 25.3071 22.5429 24.7571 22.2644C24.3571 22.0644 23.9286 21.9644 23.4929 21.9644L20.7143 21.9501C20.4214 21.9501 20.1786 21.7072 20.1786 21.4144V19.1644C20.1786 18.6929 20.4214 18.1072 20.7572 17.7715L22.2714 16.2572C22.3 16.2286 22.3214 16.1786 22.3214 16.1358V15.0001C22.3214 14.7072 22.5643 14.4644 22.8572 14.4644H27.1429C27.4357 14.4644 27.6786 14.7072 27.6786 15.0001V16.1358C27.6786 16.1786 27.7 16.2286 27.7286 16.2572L29.2429 17.7715C29.5786 18.1072 29.8214 18.6929 29.8214 19.1644V22.1429C29.8214 22.4358 29.5786 22.6786 29.2857 22.6786ZM21.25 20.8786L23.4929 20.8929C24.0929 20.8929 24.6929 21.0358 25.2357 21.3072C25.6357 21.5072 26.0643 21.6072 26.5143 21.6072H28.75V19.1644C28.75 18.9786 28.6214 18.6644 28.4857 18.5286L26.9715 17.0144C26.7429 16.7858 26.6072 16.4644 26.6072 16.1358V15.5358H23.3929V16.1358C23.3929 16.4644 23.2572 16.7858 23.0286 17.0144L21.5143 18.5286C21.3786 18.6644 21.25 18.9786 21.25 19.1644V20.8786Z" fill="#84BA96"/>
<path d="M29.2857 23.3929C28.9929 23.3929 28.75 23.15 28.75 22.8572V22.1429C28.75 21.85 28.9929 21.6072 29.2857 21.6072C29.5786 21.6072 29.8214 21.85 29.8214 22.1429V22.8572C29.8214 23.15 29.5786 23.3929 29.2857 23.3929Z" fill="#84BA96"/>
<path d="M20.7143 22.6643C20.4214 22.6643 20.1786 22.4214 20.1786 22.1285V21.4143C20.1786 21.1214 20.4214 20.8785 20.7143 20.8785C21.0072 20.8785 21.25 21.1214 21.25 21.4143V22.1285C21.25 22.4214 21.0072 22.6643 20.7143 22.6643Z" fill="#84BA96"/>
<path d="M26.7857 15.5357H23.2143C22.3286 15.5357 21.6072 14.8143 21.6072 13.9286C21.6072 13.0428 22.3286 12.3214 23.2143 12.3214H26.7857C27.6715 12.3214 28.3929 13.0428 28.3929 13.9286C28.3929 14.8143 27.6715 15.5357 26.7857 15.5357ZM23.2143 13.3928C22.9215 13.3928 22.6786 13.6357 22.6786 13.9286C22.6786 14.2214 22.9215 14.4643 23.2143 14.4643H26.7857C27.0786 14.4643 27.3215 14.2214 27.3215 13.9286C27.3215 13.6357 27.0786 13.3928 26.7857 13.3928H23.2143Z" fill="#84BA96"/>
<rect y="115" width="56" height="56" rx="28" fill="#8ACECF" fill-opacity="0.15"/>
<path d="M38 153.75H18C17.59 153.75 17.25 153.41 17.25 153C17.25 152.59 17.59 152.25 18 152.25H38C38.41 152.25 38.75 152.59 38.75 153C38.75 153.41 38.41 153.75 38 153.75Z" fill="#8ACECF"/>
<path d="M37 153.75H19C18.59 153.75 18.25 153.41 18.25 153V137C18.25 133.98 19.98 132.25 23 132.25H33C36.02 132.25 37.75 133.98 37.75 137V153C37.75 153.41 37.41 153.75 37 153.75ZM19.75 152.25H36.25V137C36.25 134.78 35.22 133.75 33 133.75H23C20.78 133.75 19.75 134.78 19.75 137V152.25Z" fill="#8ACECF"/>
<path d="M31 153.75H25C24.59 153.75 24.25 153.41 24.25 153V146.94C24.25 146.01 25.01 145.25 25.94 145.25H30.07C31 145.25 31.76 146.01 31.76 146.94V153C31.75 153.41 31.41 153.75 31 153.75ZM25.75 152.25H30.25V146.94C30.25 146.84 30.17 146.75 30.06 146.75H25.93C25.83 146.75 25.74 146.83 25.74 146.94V152.25H25.75Z" fill="#8ACECF"/>
<path d="M28 142.75C27.59 142.75 27.25 142.41 27.25 142V137C27.25 136.59 27.59 136.25 28 136.25C28.41 136.25 28.75 136.59 28.75 137V142C28.75 142.41 28.41 142.75 28 142.75Z" fill="#8ACECF"/>
<path d="M30.5 140.25H25.5C25.09 140.25 24.75 139.91 24.75 139.5C24.75 139.09 25.09 138.75 25.5 138.75H30.5C30.91 138.75 31.25 139.09 31.25 139.5C31.25 139.91 30.91 140.25 30.5 140.25Z" fill="#8ACECF"/>
<rect x="116" y="33" width="72" height="72" rx="36" fill="#C28686" fill-opacity="0.15"/>
<path d="M161 70.7485H139.143C138.616 70.7485 138.179 70.3114 138.179 69.7842C138.179 69.2571 138.616 68.8199 139.143 68.8199H161C161.527 68.8199 161.964 69.2571 161.964 69.7842C161.964 70.3114 161.527 70.7485 161 70.7485Z" fill="#C28686"/>
<path d="M156.14 81.5357H144.003C139.593 81.5357 138.179 80.1343 138.179 75.7757V66.7886C138.179 63.33 138.963 61.2857 142.949 61.0543C143.283 61.0414 143.63 61.0286 144.003 61.0286H156.14C160.55 61.0286 161.964 62.43 161.964 66.7886V75.9814C161.913 80.1857 160.499 81.5357 156.14 81.5357ZM144.003 62.9571C143.656 62.9571 143.334 62.97 143.039 62.9829C140.737 63.1243 140.107 63.6128 140.107 66.7886V75.7757C140.107 79.0671 140.647 79.6071 144.003 79.6071H156.14C159.457 79.6071 159.997 79.0929 160.036 75.9686V66.7886C160.036 63.4971 159.496 62.9571 156.14 62.9571H144.003V62.9571Z" fill="#C28686"/>
<path d="M161 76.9457C160.756 76.9457 160.511 76.8557 160.344 76.6885C160.151 76.5085 160.036 76.2514 160.036 75.9814V66.7885C160.036 63.4971 159.496 62.9571 156.14 62.9571H144.003C143.656 62.9571 143.334 62.9699 143.039 62.9828C142.781 62.9957 142.524 62.8928 142.331 62.7128C142.138 62.5328 142.036 62.2757 142.036 62.0057C142.087 57.8142 143.501 56.4642 147.86 56.4642H159.997C164.407 56.4642 165.821 57.8657 165.821 62.2242V71.2114C165.821 74.67 165.037 76.7142 161.051 76.9457C161.038 76.9457 161.013 76.9457 161 76.9457ZM144.003 61.0285H156.14C160.55 61.0285 161.964 62.4299 161.964 66.7885V74.9142C163.456 74.6442 163.893 73.8728 163.893 71.2114V62.2242C163.893 58.9328 163.353 58.3928 159.997 58.3928H147.86C144.929 58.3928 144.17 58.7914 144.003 61.0285Z" fill="#C28686"/>
<path d="M145.52 77.4343H143.309C142.782 77.4343 142.345 76.9972 142.345 76.47C142.345 75.9429 142.782 75.5057 143.309 75.5057H145.52C146.048 75.5057 146.485 75.9429 146.485 76.47C146.485 76.9972 146.06 77.4343 145.52 77.4343Z" fill="#C28686"/>
<path d="M152.707 77.4343H148.284C147.757 77.4343 147.32 76.9972 147.32 76.47C147.32 75.9429 147.757 75.5057 148.284 75.5057H152.707C153.234 75.5057 153.671 75.9429 153.671 76.47C153.671 76.9972 153.247 77.4343 152.707 77.4343Z" fill="#C28686"/>
<rect x="127" y="188" width="56" height="56" rx="28" fill="#C491DC" fill-opacity="0.15"/>
<path d="M151.58 226.55C151.36 226.55 151.13 226.51 150.92 226.42C150.45 226.22 150.09 225.83 149.93 225.34L149.49 224.02C149.29 223.42 149.47 222.67 149.91 222.22L152.18 219.94C152.21 219.91 152.25 219.8 152.25 219.75V217.28L147.69 219.25C147.08 219.51 146.46 219.48 145.99 219.17C145.52 218.86 145.24 218.3 145.24 217.65V216.36C145.24 215.38 145.94 214.33 146.83 213.98L152.24 211.64V208.8C152.24 207.59 153.09 206.2 154.17 205.64C154.69 205.38 155.29 205.38 155.8 205.64C156.89 206.2 157.74 207.58 157.74 208.79V211.63L163.18 213.97C164.07 214.35 164.75 215.37 164.75 216.36V217.65C164.75 218.31 164.48 218.86 164 219.17C163.52 219.48 162.91 219.51 162.3 219.26L157.74 217.29V219.76C157.74 219.8 157.78 219.9 157.81 219.93L160.09 222.22C160.53 222.66 160.71 223.43 160.51 224.02L160.07 225.34C159.9 225.83 159.54 226.22 159.06 226.41C158.59 226.6 158.07 226.58 157.62 226.36C157.57 226.33 157.52 226.3 157.47 226.26L155.14 224.3C155.06 224.23 154.9 224.24 154.83 224.3L152.5 226.26C152.46 226.3 152.41 226.33 152.36 226.35C152.12 226.49 151.85 226.55 151.58 226.55ZM152.56 215.64C152.79 215.64 153.01 215.7 153.2 215.83C153.55 216.06 153.75 216.45 153.75 216.91V219.76C153.75 220.19 153.54 220.7 153.24 221L150.97 223.28C150.93 223.33 150.89 223.48 150.91 223.54L151.35 224.87C151.38 224.97 151.45 225.01 151.49 225.03C151.52 225.04 151.57 225.06 151.63 225.04L153.87 223.15C154.5 222.61 155.49 222.61 156.12 223.15L158.35 225.03C158.42 225.04 158.47 225.03 158.5 225.02C158.54 225 158.62 224.96 158.65 224.86L159.09 223.54C159.11 223.47 159.07 223.32 159.03 223.28L156.76 221C156.46 220.72 156.24 220.2 156.24 219.76V216.91C156.24 216.46 156.43 216.07 156.77 215.84C157.11 215.61 157.55 215.58 157.97 215.76L162.89 217.88C163.04 217.94 163.14 217.94 163.17 217.92C163.2 217.9 163.24 217.81 163.24 217.65V216.36C163.24 215.98 162.92 215.49 162.58 215.35L157 212.94C156.56 212.75 156.25 212.27 156.25 211.79V208.79C156.25 208.13 155.73 207.28 155.13 206.98C155.05 206.94 154.95 206.94 154.86 206.98C154.28 207.28 153.75 208.15 153.75 208.8V211.8C153.75 212.27 153.44 212.76 153 212.95L147.42 215.36C147.07 215.5 146.75 215.99 146.75 216.36V217.65C146.75 217.81 146.79 217.9 146.82 217.92C146.85 217.94 146.95 217.94 147.1 217.88L152.01 215.76C152.19 215.68 152.38 215.64 152.56 215.64Z" fill="#C491DC"/>
</svg>
