<svg width="131" height="45" viewBox="0 0 131 45" fill="none" xmlns="http://www.w3.org/2000/svg">
<rect width="131" height="45" rx="10" fill="white"/>
<path d="M56.968 32L56.227 29.959H52.132L51.391 32H50.104L53.497 22.9H54.862L58.255 32H56.968ZM52.548 28.828H55.811L54.173 24.343L52.548 28.828Z" fill="#262834"/>
<path d="M62.7995 25.331C63.7095 25.331 64.4852 25.6646 65.1265 26.332C65.7679 26.9906 66.0885 27.7966 66.0885 28.75C66.0885 29.7033 65.7679 30.5136 65.1265 31.181C64.4852 31.8396 63.7095 32.169 62.7995 32.169C61.7249 32.169 60.9059 31.74 60.3425 30.882V34.6H59.2115V25.5H60.3425V26.618C60.9059 25.76 61.7249 25.331 62.7995 25.331ZM62.6565 31.077C63.3065 31.077 63.8525 30.856 64.2945 30.414C64.7365 29.9633 64.9575 29.4086 64.9575 28.75C64.9575 28.0913 64.7365 27.541 64.2945 27.099C63.8525 26.6483 63.3065 26.423 62.6565 26.423C61.9979 26.423 61.4475 26.6483 61.0055 27.099C60.5635 27.541 60.3425 28.0913 60.3425 28.75C60.3425 29.4086 60.5635 29.9633 61.0055 30.414C61.4475 30.856 61.9979 31.077 62.6565 31.077Z" fill="#262834"/>
<path d="M71.0261 25.331C71.9361 25.331 72.7118 25.6646 73.3531 26.332C73.9944 26.9906 74.3151 27.7966 74.3151 28.75C74.3151 29.7033 73.9944 30.5136 73.3531 31.181C72.7118 31.8396 71.9361 32.169 71.0261 32.169C69.9514 32.169 69.1324 31.74 68.5691 30.882V34.6H67.4381V25.5H68.5691V26.618C69.1324 25.76 69.9514 25.331 71.0261 25.331ZM70.8831 31.077C71.5331 31.077 72.0791 30.856 72.5211 30.414C72.9631 29.9633 73.1841 29.4086 73.1841 28.75C73.1841 28.0913 72.9631 27.541 72.5211 27.099C72.0791 26.6483 71.5331 26.423 70.8831 26.423C70.2244 26.423 69.6741 26.6483 69.2321 27.099C68.7901 27.541 68.5691 28.0913 68.5691 28.75C68.5691 29.4086 68.7901 29.9633 69.2321 30.414C69.6741 30.856 70.2244 31.077 70.8831 31.077Z" fill="#262834"/>
<path d="M81.9696 32.169C81.1203 32.169 80.3923 31.9696 79.7856 31.571C79.1876 31.1723 78.7673 30.6263 78.5246 29.933L79.5646 29.335C79.92 30.4356 80.7303 30.986 81.9956 30.986C82.6196 30.986 83.0963 30.8603 83.4256 30.609C83.755 30.349 83.9196 30.0066 83.9196 29.582C83.9196 29.1486 83.755 28.8236 83.4256 28.607C83.0963 28.3903 82.546 28.1606 81.7746 27.918C81.3933 27.7966 81.103 27.7013 80.9036 27.632C80.7043 27.554 80.453 27.4413 80.1496 27.294C79.855 27.138 79.634 26.982 79.4866 26.826C79.3393 26.6613 79.205 26.449 79.0836 26.189C78.971 25.929 78.9146 25.6343 78.9146 25.305C78.9146 24.5163 79.192 23.8923 79.7466 23.433C80.3013 22.965 80.9773 22.731 81.7746 22.731C82.494 22.731 83.118 22.913 83.6466 23.277C84.184 23.641 84.587 24.122 84.8556 24.72L83.8416 25.305C83.4516 24.369 82.7626 23.901 81.7746 23.901C81.2806 23.901 80.882 24.0223 80.5786 24.265C80.2753 24.5076 80.1236 24.837 80.1236 25.253C80.1236 25.6516 80.2666 25.955 80.5526 26.163C80.8386 26.371 81.3326 26.5876 82.0346 26.813C82.286 26.891 82.4636 26.9473 82.5676 26.982C82.6716 27.0166 82.832 27.0773 83.0486 27.164C83.274 27.2506 83.4386 27.32 83.5426 27.372C83.6466 27.424 83.7853 27.4976 83.9586 27.593C84.1406 27.6883 84.275 27.7793 84.3616 27.866C84.4483 27.9526 84.548 28.061 84.6606 28.191C84.782 28.3123 84.8686 28.438 84.9206 28.568C84.9726 28.698 85.016 28.8496 85.0506 29.023C85.094 29.1876 85.1156 29.3653 85.1156 29.556C85.1156 30.3533 84.8253 30.9903 84.2446 31.467C83.664 31.935 82.9056 32.169 81.9696 32.169Z" fill="#262834"/>
<path d="M89.7758 26.592H88.0468V30.115C88.0468 30.4356 88.1075 30.6653 88.2288 30.804C88.3588 30.934 88.5538 31.0033 88.8138 31.012C89.0738 31.012 89.3945 31.0033 89.7758 30.986V32C88.7878 32.13 88.0642 32.052 87.6048 31.766C87.1455 31.4713 86.9158 30.921 86.9158 30.115V26.592H85.6288V25.5H86.9158V24.018L88.0468 23.68V25.5H89.7758V26.592Z" fill="#262834"/>
<path d="M96.2708 31.181C95.6034 31.8396 94.7931 32.169 93.8398 32.169C92.8864 32.169 92.0761 31.8396 91.4088 31.181C90.7501 30.5223 90.4208 29.712 90.4208 28.75C90.4208 27.788 90.7501 26.9776 91.4088 26.319C92.0761 25.6603 92.8864 25.331 93.8398 25.331C94.7931 25.331 95.6034 25.6603 96.2708 26.319C96.9381 26.9776 97.2718 27.788 97.2718 28.75C97.2718 29.712 96.9381 30.5223 96.2708 31.181ZM93.8398 31.064C94.4898 31.064 95.0358 30.843 95.4778 30.401C95.9198 29.959 96.1408 29.4086 96.1408 28.75C96.1408 28.0913 95.9198 27.541 95.4778 27.099C95.0358 26.657 94.4898 26.436 93.8398 26.436C93.1984 26.436 92.6568 26.657 92.2148 27.099C91.7728 27.541 91.5518 28.0913 91.5518 28.75C91.5518 29.4086 91.7728 29.959 92.2148 30.401C92.6568 30.843 93.1984 31.064 93.8398 31.064Z" fill="#262834"/>
<path d="M99.7361 26.592C100.109 25.786 100.785 25.383 101.764 25.383V26.566C101.209 26.54 100.733 26.6873 100.334 27.008C99.9354 27.3286 99.7361 27.8443 99.7361 28.555V32H98.6051V25.5H99.7361V26.592Z" fill="#262834"/>
<path d="M103.308 29.27C103.421 29.8506 103.685 30.3013 104.101 30.622C104.526 30.9426 105.046 31.103 105.661 31.103C106.519 31.103 107.143 30.7866 107.533 30.154L108.495 30.7C107.863 31.6793 106.909 32.169 105.635 32.169C104.604 32.169 103.763 31.8483 103.113 31.207C102.472 30.557 102.151 29.738 102.151 28.75C102.151 27.7706 102.468 26.956 103.1 26.306C103.733 25.656 104.552 25.331 105.557 25.331C106.511 25.331 107.286 25.669 107.884 26.345C108.491 27.0123 108.794 27.8183 108.794 28.763C108.794 28.9276 108.781 29.0966 108.755 29.27H103.308ZM105.557 26.397C104.951 26.397 104.448 26.5703 104.049 26.917C103.651 27.255 103.404 27.71 103.308 28.282H107.65C107.555 27.6666 107.312 27.1986 106.922 26.878C106.532 26.5573 106.077 26.397 105.557 26.397Z" fill="#262834"/>
<path d="M52.45 13.0999C53.1173 13.0999 53.668 13.3379 54.102 13.8139C54.5407 14.2852 54.76 14.8639 54.76 15.5499C54.76 16.2359 54.5407 16.8169 54.102 17.2929C53.668 17.7642 53.1173 17.9999 52.45 17.9999H50.56V13.0999H52.45ZM52.45 17.5379C52.9867 17.5379 53.4253 17.3466 53.766 16.9639C54.1113 16.5812 54.284 16.1099 54.284 15.5499C54.284 14.9899 54.1113 14.5186 53.766 14.1359C53.4253 13.7532 52.9867 13.5619 52.45 13.5619H51.05V17.5379H52.45Z" fill="#262834"/>
<path d="M58.4611 17.5589C58.1064 17.9089 57.6724 18.0839 57.1591 18.0839C56.6458 18.0839 56.2094 17.9089 55.8501 17.5589C55.4954 17.2042 55.3181 16.7679 55.3181 16.2499C55.3181 15.7319 55.4954 15.2979 55.8501 14.9479C56.2094 14.5932 56.6458 14.4159 57.1591 14.4159C57.6724 14.4159 58.1064 14.5932 58.4611 14.9479C58.8204 15.2979 59.0001 15.7319 59.0001 16.2499C59.0001 16.7679 58.8204 17.2042 58.4611 17.5589ZM56.1791 17.2369C56.4451 17.5029 56.7717 17.6359 57.1591 17.6359C57.5464 17.6359 57.8731 17.5029 58.1391 17.2369C58.4051 16.9662 58.5381 16.6372 58.5381 16.2499C58.5381 15.8626 58.4051 15.5359 58.1391 15.2699C57.8731 14.9992 57.5464 14.8639 57.1591 14.8639C56.7717 14.8639 56.4451 14.9992 56.1791 15.2699C55.9131 15.5359 55.7801 15.8626 55.7801 16.2499C55.7801 16.6372 55.9131 16.9662 56.1791 17.2369Z" fill="#262834"/>
<path d="M63.8505 14.4999H64.3265L63.2485 17.9999H62.7445L61.8415 15.1789L60.9385 17.9999H60.4345L59.3565 14.4999H59.8325L60.6935 17.4049L61.6105 14.4999H62.0725L62.9895 17.4049L63.8505 14.4999Z" fill="#262834"/>
<path d="M66.6612 14.4159C67.0859 14.4159 67.4195 14.5466 67.6622 14.8079C67.9095 15.0646 68.0332 15.4122 68.0332 15.8509V17.9999H67.5712V15.8509C67.5712 15.5382 67.4872 15.2956 67.3192 15.1229C67.1559 14.9502 66.9225 14.8639 66.6192 14.8639C66.2832 14.8639 66.0102 14.9712 65.8002 15.1859C65.5902 15.3959 65.4852 15.7226 65.4852 16.1659V17.9999H65.0232V14.4999H65.4852V15.0459C65.7465 14.6259 66.1385 14.4159 66.6612 14.4159Z" fill="#262834"/>
<path d="M68.9265 17.9999V12.8899H69.3885V17.9999H68.9265Z" fill="#262834"/>
<path d="M73.3019 17.5589C72.9472 17.9089 72.5132 18.0839 71.9999 18.0839C71.4866 18.0839 71.0502 17.9089 70.6909 17.5589C70.3362 17.2042 70.1589 16.7679 70.1589 16.2499C70.1589 15.7319 70.3362 15.2979 70.6909 14.9479C71.0502 14.5932 71.4866 14.4159 71.9999 14.4159C72.5132 14.4159 72.9472 14.5932 73.3019 14.9479C73.6612 15.2979 73.8409 15.7319 73.8409 16.2499C73.8409 16.7679 73.6612 17.2042 73.3019 17.5589ZM71.0199 17.2369C71.2859 17.5029 71.6126 17.6359 71.9999 17.6359C72.3872 17.6359 72.7139 17.5029 72.9799 17.2369C73.2459 16.9662 73.3789 16.6372 73.3789 16.2499C73.3789 15.8626 73.2459 15.5359 72.9799 15.2699C72.7139 14.9992 72.3872 14.8639 71.9999 14.8639C71.6126 14.8639 71.2859 14.9992 71.0199 15.2699C70.7539 15.5359 70.6209 15.8626 70.6209 16.2499C70.6209 16.6372 70.7539 16.9662 71.0199 17.2369Z" fill="#262834"/>
<path d="M77.624 14.4999H78.086V17.9999H77.624V17.3139C77.302 17.8272 76.8307 18.0839 76.21 18.0839C75.7107 18.0839 75.2837 17.9066 74.929 17.5519C74.579 17.1972 74.404 16.7632 74.404 16.2499C74.404 15.7366 74.579 15.3026 74.929 14.9479C75.2837 14.5932 75.7107 14.4159 76.21 14.4159C76.8307 14.4159 77.302 14.6726 77.624 15.1859V14.4999ZM75.265 17.2369C75.531 17.5029 75.8577 17.6359 76.245 17.6359C76.6324 17.6359 76.959 17.5029 77.225 17.2369C77.491 16.9662 77.624 16.6372 77.624 16.2499C77.624 15.8626 77.491 15.5359 77.225 15.2699C76.959 14.9992 76.6324 14.8639 76.245 14.8639C75.8577 14.8639 75.531 14.9992 75.265 15.2699C74.999 15.5359 74.866 15.8626 74.866 16.2499C74.866 16.6372 74.999 16.9662 75.265 17.2369Z" fill="#262834"/>
<path d="M82.0742 13.0999H82.5362V17.9999H82.0742V17.3139C81.7522 17.8272 81.2809 18.0839 80.6602 18.0839C80.1609 18.0839 79.7339 17.9066 79.3792 17.5519C79.0292 17.1972 78.8542 16.7632 78.8542 16.2499C78.8542 15.7366 79.0292 15.3026 79.3792 14.9479C79.7339 14.5932 80.1609 14.4159 80.6602 14.4159C81.2809 14.4159 81.7522 14.6726 82.0742 15.1859V13.0999ZM79.7152 17.2369C79.9812 17.5029 80.3079 17.6359 80.6952 17.6359C81.0826 17.6359 81.4092 17.5029 81.6752 17.2369C81.9412 16.9662 82.0742 16.6372 82.0742 16.2499C82.0742 15.8626 81.9412 15.5359 81.6752 15.2699C81.4092 14.9992 81.0826 14.8639 80.6952 14.8639C80.3079 14.8639 79.9812 14.9992 79.7152 15.2699C79.4492 15.5359 79.3162 15.8626 79.3162 16.2499C79.3162 16.6372 79.4492 16.9662 79.7152 17.2369Z" fill="#262834"/>
<path d="M88.1974 17.5589C87.8427 17.9089 87.4087 18.0839 86.8954 18.0839C86.3821 18.0839 85.9457 17.9089 85.5864 17.5589C85.2317 17.2042 85.0544 16.7679 85.0544 16.2499C85.0544 15.7319 85.2317 15.2979 85.5864 14.9479C85.9457 14.5932 86.3821 14.4159 86.8954 14.4159C87.4087 14.4159 87.8427 14.5932 88.1974 14.9479C88.5567 15.2979 88.7364 15.7319 88.7364 16.2499C88.7364 16.7679 88.5567 17.2042 88.1974 17.5589ZM85.9154 17.2369C86.1814 17.5029 86.5081 17.6359 86.8954 17.6359C87.2827 17.6359 87.6094 17.5029 87.8754 17.2369C88.1414 16.9662 88.2744 16.6372 88.2744 16.2499C88.2744 15.8626 88.1414 15.5359 87.8754 15.2699C87.6094 14.9992 87.2827 14.8639 86.8954 14.8639C86.5081 14.8639 86.1814 14.9992 85.9154 15.2699C85.6494 15.5359 85.5164 15.8626 85.5164 16.2499C85.5164 16.6372 85.6494 16.9662 85.9154 17.2369Z" fill="#262834"/>
<path d="M91.1475 14.4159C91.5722 14.4159 91.9059 14.5466 92.1485 14.8079C92.3959 15.0646 92.5195 15.4122 92.5195 15.8509V17.9999H92.0575V15.8509C92.0575 15.5382 91.9735 15.2956 91.8055 15.1229C91.6422 14.9502 91.4089 14.8639 91.1055 14.8639C90.7695 14.8639 90.4965 14.9712 90.2865 15.1859C90.0765 15.3959 89.9715 15.7226 89.9715 16.1659V17.9999H89.5095V14.4999H89.9715V15.0459C90.2329 14.6259 90.6249 14.4159 91.1475 14.4159Z" fill="#262834"/>
<path d="M97.0178 14.9479H96.0098V17.0689C96.0098 17.2602 96.0472 17.3979 96.1218 17.4819C96.1965 17.5612 96.3085 17.6032 96.4578 17.6079C96.6072 17.6079 96.7938 17.6032 97.0178 17.5939V17.9999C96.5278 18.0746 96.1592 18.0396 95.9118 17.8949C95.6692 17.7502 95.5478 17.4749 95.5478 17.0689V14.9479H94.8129V14.4999H95.5478V13.6599L96.0098 13.5199V14.4999H97.0178V14.9479Z" fill="#262834"/>
<path d="M99.4258 14.4159C99.8505 14.4159 100.184 14.5466 100.427 14.8079C100.674 15.0646 100.798 15.4122 100.798 15.8509V17.9999H100.336V15.8509C100.336 15.5382 100.252 15.2956 100.084 15.1229C99.9205 14.9502 99.6872 14.8639 99.3839 14.8639C99.0479 14.8639 98.7748 14.9712 98.5648 15.1859C98.3549 15.3959 98.2498 15.7226 98.2498 16.1659V17.9999H97.7878V13.0999H98.2498V15.0459C98.5112 14.6259 98.9032 14.4159 99.4258 14.4159Z" fill="#262834"/>
<path d="M103.308 14.4159C103.826 14.4159 104.244 14.6002 104.561 14.9689C104.883 15.3329 105.044 15.7646 105.044 16.2639C105.044 16.3152 105.04 16.3876 105.03 16.4809H101.957C102.004 16.8356 102.153 17.1179 102.405 17.3279C102.662 17.5332 102.977 17.6359 103.35 17.6359C103.616 17.6359 103.845 17.5822 104.036 17.4749C104.232 17.3629 104.379 17.2182 104.477 17.0409L104.883 17.2789C104.729 17.5262 104.519 17.7222 104.253 17.8669C103.987 18.0116 103.684 18.0839 103.343 18.0839C102.793 18.0839 102.345 17.9112 101.999 17.5659C101.654 17.2206 101.481 16.7819 101.481 16.2499C101.481 15.7272 101.652 15.2909 101.992 14.9409C102.333 14.5909 102.772 14.4159 103.308 14.4159ZM103.308 14.8639C102.944 14.8639 102.639 14.9736 102.391 15.1929C102.149 15.4076 102.004 15.6876 101.957 16.0329H104.568C104.522 15.6642 104.379 15.3772 104.141 15.1719C103.903 14.9666 103.626 14.8639 103.308 14.8639Z" fill="#262834"/>
<path d="M40.6302 18.5272C40.514 18.5968 37.7475 20.0664 37.7475 23.3248C37.8779 27.0408 41.2387 28.3439 41.2963 28.3439C41.2387 28.4136 40.7889 30.1192 39.4567 31.9071C38.3995 33.4472 37.226 35 35.4441 35C33.749 35 33.1406 33.9736 31.1848 33.9736C29.0844 33.9736 28.4901 35 26.882 35C25.1001 35 23.8397 33.364 22.7248 31.8384C21.2764 29.8416 20.0453 26.708 20.0018 23.6992C19.9725 22.1048 20.2919 20.5375 21.1026 19.2063C22.2467 17.3479 24.2894 16.0863 26.5202 16.0447C28.2294 15.9895 29.7505 17.1679 30.7936 17.1679C31.7933 17.1679 33.6621 16.0447 35.7766 16.0447C36.6893 16.0456 39.1232 16.3088 40.6302 18.5272ZM30.6491 15.7264C30.3448 14.2704 31.1848 12.8144 31.9671 11.8856C32.9667 10.7624 34.5455 10 35.907 10C35.9939 11.456 35.4431 12.884 34.4586 13.924C33.5752 15.0472 32.054 15.8928 30.6491 15.7264Z" fill="#262834"/>
</svg>
