<svg width="1856" height="452" viewBox="0 0 1856 452" fill="none" xmlns="http://www.w3.org/2000/svg" preserveAspectRatio="none">
<g clip-path="url(#clip0_3369_25823)">
<rect width="1856" height="452" fill="url(#paint0_linear_3369_25823)"/>
<g filter="url(#filter0_f_3369_25823)">
<path d="M652.831 55.4827C614.1 257.648 471.547 171.455 220.166 123.294C-31.215 75.1331 -457.51 203.047 -418.778 0.881802C-380.046 -201.283 -1094.69 -528.671 -843.313 -480.51C-591.932 -432.349 691.563 -146.682 652.831 55.4827Z" fill="#8ACECF"/>
</g>
<g filter="url(#filter1_f_3369_25823)">
<path d="M1296.11 -566.49C1452.84 -423.174 1321.33 -367.772 1178.02 -211.037C1034.7 -54.3021 970.479 330.658 813.745 187.342C657.01 44.0254 87.0684 381.306 230.385 224.571C373.701 67.8358 1139.37 -709.806 1296.11 -566.49Z" fill="#C28686"/>
</g>
<g filter="url(#filter2_f_3369_25823)">
<path d="M1073.28 666.658C1034.19 828.771 946.225 759.372 784.112 720.289C621.999 681.207 332.982 783.065 372.064 620.952C411.147 458.839 -36.9038 194.931 125.209 234.013C287.322 273.096 1112.36 504.545 1073.28 666.658Z" fill="#A486C2"/>
</g>
<g filter="url(#filter3_f_3369_25823)">
<path d="M2250.82 2001.72C1990.86 2135.85 1982.03 1939.5 1847.9 1679.54C1713.78 1419.58 1247.04 1152.92 1506.99 1018.79C1766.95 884.668 1603.12 -12.6587 1737.25 247.3C1871.37 507.259 2510.78 1867.6 2250.82 2001.72Z" fill="#E9AD79"/>
</g>
</g>
<defs>
<filter id="filter0_f_3369_25823" x="-1247.03" y="-835.284" width="2250.72" height="1368.67" filterUnits="userSpaceOnUse" color-interpolation-filters="sRGB">
<feFlood flood-opacity="0" result="BackgroundImageFix"/>
<feBlend mode="normal" in="SourceGraphic" in2="BackgroundImageFix" result="shape"/>
<feGaussianBlur stdDeviation="175" result="effect1_foregroundBlur_3369_25823"/>
</filter>
<filter id="filter1_f_3369_25823" x="-142.518" y="-934.025" width="1859.6" height="1551.16" filterUnits="userSpaceOnUse" color-interpolation-filters="sRGB">
<feFlood flood-opacity="0" result="BackgroundImageFix"/>
<feBlend mode="normal" in="SourceGraphic" in2="BackgroundImageFix" result="shape"/>
<feGaussianBlur stdDeviation="175" result="effect1_foregroundBlur_3369_25823"/>
</filter>
<filter id="filter2_f_3369_25823" x="-310.283" y="-169.884" width="1784.9" height="1338.92" filterUnits="userSpaceOnUse" color-interpolation-filters="sRGB">
<feFlood flood-opacity="0" result="BackgroundImageFix"/>
<feBlend mode="normal" in="SourceGraphic" in2="BackgroundImageFix" result="shape"/>
<feGaussianBlur stdDeviation="200" result="effect1_foregroundBlur_3369_25823"/>
</filter>
<filter id="filter3_f_3369_25823" x="1029.55" y="-199.688" width="1682.8" height="2644.8" filterUnits="userSpaceOnUse" color-interpolation-filters="sRGB">
<feFlood flood-opacity="0" result="BackgroundImageFix"/>
<feBlend mode="normal" in="SourceGraphic" in2="BackgroundImageFix" result="shape"/>
<feGaussianBlur stdDeviation="200" result="effect1_foregroundBlur_3369_25823"/>
</filter>
<linearGradient id="paint0_linear_3369_25823" x1="1575.02" y1="452" x2="1434.2" y2="-252.516" gradientUnits="userSpaceOnUse">
<stop stop-color="#20222F"/>
<stop offset="1" stop-color="#4A4D62"/>
</linearGradient>
<clipPath id="clip0_3369_25823">
<rect width="1856" height="452" fill="white"/>
</clipPath>
</defs>
</svg>
