<svg width="131" height="45" viewBox="0 0 131 45" fill="none" xmlns="http://www.w3.org/2000/svg">
<rect width="131" height="45" rx="10" fill="#262834"/>
<path d="M47.45 11.0999C48.1173 11.0999 48.668 11.3379 49.102 11.8139C49.5407 12.2852 49.76 12.8639 49.76 13.5499C49.76 14.2359 49.5407 14.8169 49.102 15.2929C48.668 15.7642 48.1173 15.9999 47.45 15.9999H45.56V11.0999H47.45ZM47.45 15.5379C47.9867 15.5379 48.4253 15.3466 48.766 14.9639C49.1113 14.5812 49.284 14.1099 49.284 13.5499C49.284 12.9899 49.1113 12.5186 48.766 12.1359C48.4253 11.7532 47.9867 11.5619 47.45 11.5619H46.05V15.5379H47.45Z" fill="white"/>
<path d="M53.4611 15.5589C53.1064 15.9089 52.6724 16.0839 52.1591 16.0839C51.6458 16.0839 51.2094 15.9089 50.8501 15.5589C50.4954 15.2042 50.3181 14.7679 50.3181 14.2499C50.3181 13.7319 50.4954 13.2979 50.8501 12.9479C51.2094 12.5932 51.6458 12.4159 52.1591 12.4159C52.6724 12.4159 53.1064 12.5932 53.4611 12.9479C53.8204 13.2979 54.0001 13.7319 54.0001 14.2499C54.0001 14.7679 53.8204 15.2042 53.4611 15.5589ZM51.1791 15.2369C51.4451 15.5029 51.7717 15.6359 52.1591 15.6359C52.5464 15.6359 52.8731 15.5029 53.1391 15.2369C53.4051 14.9662 53.5381 14.6372 53.5381 14.2499C53.5381 13.8626 53.4051 13.5359 53.1391 13.2699C52.8731 12.9992 52.5464 12.8639 52.1591 12.8639C51.7717 12.8639 51.4451 12.9992 51.1791 13.2699C50.9131 13.5359 50.7801 13.8626 50.7801 14.2499C50.7801 14.6372 50.9131 14.9662 51.1791 15.2369Z" fill="white"/>
<path d="M58.8505 12.4999H59.3265L58.2485 15.9999H57.7445L56.8415 13.1789L55.9385 15.9999H55.4345L54.3565 12.4999H54.8325L55.6935 15.4049L56.6105 12.4999H57.0725L57.9895 15.4049L58.8505 12.4999Z" fill="white"/>
<path d="M61.6612 12.4159C62.0859 12.4159 62.4195 12.5466 62.6622 12.8079C62.9095 13.0646 63.0332 13.4122 63.0332 13.8509V15.9999H62.5712V13.8509C62.5712 13.5382 62.4872 13.2956 62.3192 13.1229C62.1559 12.9502 61.9225 12.8639 61.6192 12.8639C61.2832 12.8639 61.0102 12.9712 60.8002 13.1859C60.5902 13.3959 60.4852 13.7226 60.4852 14.1659V15.9999H60.0232V12.4999H60.4852V13.0459C60.7465 12.6259 61.1385 12.4159 61.6612 12.4159Z" fill="white"/>
<path d="M63.9265 15.9999V10.8899H64.3885V15.9999H63.9265Z" fill="white"/>
<path d="M68.3019 15.5589C67.9472 15.9089 67.5132 16.0839 66.9999 16.0839C66.4866 16.0839 66.0502 15.9089 65.6909 15.5589C65.3362 15.2042 65.1589 14.7679 65.1589 14.2499C65.1589 13.7319 65.3362 13.2979 65.6909 12.9479C66.0502 12.5932 66.4866 12.4159 66.9999 12.4159C67.5132 12.4159 67.9472 12.5932 68.3019 12.9479C68.6612 13.2979 68.8409 13.7319 68.8409 14.2499C68.8409 14.7679 68.6612 15.2042 68.3019 15.5589ZM66.0199 15.2369C66.2859 15.5029 66.6126 15.6359 66.9999 15.6359C67.3872 15.6359 67.7139 15.5029 67.9799 15.2369C68.2459 14.9662 68.3789 14.6372 68.3789 14.2499C68.3789 13.8626 68.2459 13.5359 67.9799 13.2699C67.7139 12.9992 67.3872 12.8639 66.9999 12.8639C66.6126 12.8639 66.2859 12.9992 66.0199 13.2699C65.7539 13.5359 65.6209 13.8626 65.6209 14.2499C65.6209 14.6372 65.7539 14.9662 66.0199 15.2369Z" fill="white"/>
<path d="M72.624 12.4999H73.086V15.9999H72.624V15.3139C72.302 15.8272 71.8307 16.0839 71.21 16.0839C70.7107 16.0839 70.2837 15.9066 69.929 15.5519C69.579 15.1972 69.404 14.7632 69.404 14.2499C69.404 13.7366 69.579 13.3026 69.929 12.9479C70.2837 12.5932 70.7107 12.4159 71.21 12.4159C71.8307 12.4159 72.302 12.6726 72.624 13.1859V12.4999ZM70.265 15.2369C70.531 15.5029 70.8577 15.6359 71.245 15.6359C71.6324 15.6359 71.959 15.5029 72.225 15.2369C72.491 14.9662 72.624 14.6372 72.624 14.2499C72.624 13.8626 72.491 13.5359 72.225 13.2699C71.959 12.9992 71.6324 12.8639 71.245 12.8639C70.8577 12.8639 70.531 12.9992 70.265 13.2699C69.999 13.5359 69.866 13.8626 69.866 14.2499C69.866 14.6372 69.999 14.9662 70.265 15.2369Z" fill="white"/>
<path d="M77.0742 11.0999H77.5362V15.9999H77.0742V15.3139C76.7522 15.8272 76.2809 16.0839 75.6602 16.0839C75.1609 16.0839 74.7339 15.9066 74.3792 15.5519C74.0292 15.1972 73.8542 14.7632 73.8542 14.2499C73.8542 13.7366 74.0292 13.3026 74.3792 12.9479C74.7339 12.5932 75.1609 12.4159 75.6602 12.4159C76.2809 12.4159 76.7522 12.6726 77.0742 13.1859V11.0999ZM74.7152 15.2369C74.9812 15.5029 75.3079 15.6359 75.6952 15.6359C76.0826 15.6359 76.4092 15.5029 76.6752 15.2369C76.9412 14.9662 77.0742 14.6372 77.0742 14.2499C77.0742 13.8626 76.9412 13.5359 76.6752 13.2699C76.4092 12.9992 76.0826 12.8639 75.6952 12.8639C75.3079 12.8639 74.9812 12.9992 74.7152 13.2699C74.4492 13.5359 74.3162 13.8626 74.3162 14.2499C74.3162 14.6372 74.4492 14.9662 74.7152 15.2369Z" fill="white"/>
<path d="M83.1974 15.5589C82.8427 15.9089 82.4087 16.0839 81.8954 16.0839C81.3821 16.0839 80.9457 15.9089 80.5864 15.5589C80.2317 15.2042 80.0544 14.7679 80.0544 14.2499C80.0544 13.7319 80.2317 13.2979 80.5864 12.9479C80.9457 12.5932 81.3821 12.4159 81.8954 12.4159C82.4087 12.4159 82.8427 12.5932 83.1974 12.9479C83.5567 13.2979 83.7364 13.7319 83.7364 14.2499C83.7364 14.7679 83.5567 15.2042 83.1974 15.5589ZM80.9154 15.2369C81.1814 15.5029 81.5081 15.6359 81.8954 15.6359C82.2827 15.6359 82.6094 15.5029 82.8754 15.2369C83.1414 14.9662 83.2744 14.6372 83.2744 14.2499C83.2744 13.8626 83.1414 13.5359 82.8754 13.2699C82.6094 12.9992 82.2827 12.8639 81.8954 12.8639C81.5081 12.8639 81.1814 12.9992 80.9154 13.2699C80.6494 13.5359 80.5164 13.8626 80.5164 14.2499C80.5164 14.6372 80.6494 14.9662 80.9154 15.2369Z" fill="white"/>
<path d="M86.1475 12.4159C86.5722 12.4159 86.9059 12.5466 87.1485 12.8079C87.3959 13.0646 87.5195 13.4122 87.5195 13.8509V15.9999H87.0575V13.8509C87.0575 13.5382 86.9735 13.2956 86.8055 13.1229C86.6422 12.9502 86.4089 12.8639 86.1055 12.8639C85.7695 12.8639 85.4965 12.9712 85.2865 13.1859C85.0765 13.3959 84.9715 13.7226 84.9715 14.1659V15.9999H84.5095V12.4999H84.9715V13.0459C85.2329 12.6259 85.6249 12.4159 86.1475 12.4159Z" fill="white"/>
<path d="M92.0178 12.9479H91.0098V15.0689C91.0098 15.2602 91.0472 15.3979 91.1218 15.4819C91.1965 15.5612 91.3085 15.6032 91.4578 15.6079C91.6072 15.6079 91.7938 15.6032 92.0178 15.5939V15.9999C91.5278 16.0746 91.1592 16.0396 90.9118 15.8949C90.6692 15.7502 90.5478 15.4749 90.5478 15.0689V12.9479H89.8129V12.4999H90.5478V11.6599L91.0098 11.5199V12.4999H92.0178V12.9479Z" fill="white"/>
<path d="M94.4258 12.4159C94.8505 12.4159 95.1842 12.5466 95.4268 12.8079C95.6742 13.0646 95.7978 13.4122 95.7978 13.8509V15.9999H95.3358V13.8509C95.3358 13.5382 95.2519 13.2956 95.0839 13.1229C94.9205 12.9502 94.6872 12.8639 94.3839 12.8639C94.0479 12.8639 93.7748 12.9712 93.5648 13.1859C93.3549 13.3959 93.2498 13.7226 93.2498 14.1659V15.9999H92.7878V11.0999H93.2498V13.0459C93.5112 12.6259 93.9032 12.4159 94.4258 12.4159Z" fill="white"/>
<path d="M98.3082 12.4159C98.8262 12.4159 99.2438 12.6002 99.5612 12.9689C99.8832 13.3329 100.044 13.7646 100.044 14.2639C100.044 14.3152 100.04 14.3876 100.03 14.4809H96.9572C97.0038 14.8356 97.1532 15.1179 97.4052 15.3279C97.6618 15.5332 97.9768 15.6359 98.3502 15.6359C98.6162 15.6359 98.8448 15.5822 99.0362 15.4749C99.2322 15.3629 99.3792 15.2182 99.4772 15.0409L99.8832 15.2789C99.7292 15.5262 99.5192 15.7222 99.2532 15.8669C98.9872 16.0116 98.6838 16.0839 98.3432 16.0839C97.7925 16.0839 97.3445 15.9112 96.9992 15.5659C96.6538 15.2206 96.4812 14.7819 96.4812 14.2499C96.4812 13.7272 96.6515 13.2909 96.9922 12.9409C97.3328 12.5909 97.7715 12.4159 98.3082 12.4159ZM98.3082 12.8639C97.9442 12.8639 97.6385 12.9736 97.3912 13.1929C97.1485 13.4076 97.0038 13.6876 96.9572 14.0329H99.5682C99.5215 13.6642 99.3792 13.3772 99.1412 13.1719C98.9032 12.9666 98.6255 12.8639 98.3082 12.8639Z" fill="white"/>
<path d="M54.75 25.489V26.035C54.75 27.2223 54.3427 28.2103 53.528 28.999C52.7134 29.779 51.6344 30.169 50.291 30.169C48.9044 30.169 47.756 29.714 46.846 28.804C45.9447 27.8853 45.494 26.7673 45.494 25.45C45.494 24.1327 45.9447 23.019 46.846 22.109C47.756 21.1903 48.8957 20.731 50.265 20.731C51.1057 20.731 51.877 20.9347 52.579 21.342C53.281 21.7407 53.8227 22.2693 54.204 22.928L53.164 23.539C52.904 23.045 52.5097 22.6507 51.981 22.356C51.461 22.0527 50.8847 21.901 50.252 21.901C49.212 21.901 48.3584 22.2433 47.691 22.928C47.0237 23.604 46.69 24.4447 46.69 25.45C46.69 26.4553 47.0237 27.296 47.691 27.972C48.367 28.648 49.238 28.986 50.304 28.986C51.214 28.986 51.9507 28.765 52.514 28.323C53.0774 27.8723 53.4197 27.2917 53.541 26.581H50.2V25.489H54.75Z" fill="white"/>
<path d="M61.5891 29.181C60.9218 29.8397 60.1115 30.169 59.1581 30.169C58.2048 30.169 57.3945 29.8397 56.7271 29.181C56.0685 28.5223 55.7391 27.712 55.7391 26.75C55.7391 25.788 56.0685 24.9777 56.7271 24.319C57.3945 23.6603 58.2048 23.331 59.1581 23.331C60.1115 23.331 60.9218 23.6603 61.5891 24.319C62.2565 24.9777 62.5901 25.788 62.5901 26.75C62.5901 27.712 62.2565 28.5223 61.5891 29.181ZM59.1581 29.064C59.8081 29.064 60.3541 28.843 60.7961 28.401C61.2381 27.959 61.4591 27.4087 61.4591 26.75C61.4591 26.0913 61.2381 25.541 60.7961 25.099C60.3541 24.657 59.8081 24.436 59.1581 24.436C58.5168 24.436 57.9751 24.657 57.5331 25.099C57.0911 25.541 56.8701 26.0913 56.8701 26.75C56.8701 27.4087 57.0911 27.959 57.5331 28.401C57.9751 28.843 58.5168 29.064 59.1581 29.064Z" fill="white"/>
<path d="M69.4094 29.181C68.7421 29.8397 67.9318 30.169 66.9784 30.169C66.0251 30.169 65.2148 29.8397 64.5474 29.181C63.8888 28.5223 63.5594 27.712 63.5594 26.75C63.5594 25.788 63.8888 24.9777 64.5474 24.319C65.2148 23.6603 66.0251 23.331 66.9784 23.331C67.9318 23.331 68.7421 23.6603 69.4094 24.319C70.0768 24.9777 70.4104 25.788 70.4104 26.75C70.4104 27.712 70.0768 28.5223 69.4094 29.181ZM66.9784 29.064C67.6284 29.064 68.1744 28.843 68.6164 28.401C69.0584 27.959 69.2794 27.4087 69.2794 26.75C69.2794 26.0913 69.0584 25.541 68.6164 25.099C68.1744 24.657 67.6284 24.436 66.9784 24.436C66.3371 24.436 65.7954 24.657 65.3534 25.099C64.9114 25.541 64.6904 26.0913 64.6904 26.75C64.6904 27.4087 64.9114 27.959 65.3534 28.401C65.7954 28.843 66.3371 29.064 66.9784 29.064Z" fill="white"/>
<path d="M77.1388 23.5H78.2568V29.727C78.2568 30.689 77.9318 31.4343 77.2818 31.963C76.6318 32.5003 75.8518 32.769 74.9418 32.769C74.2138 32.769 73.5854 32.6303 73.0568 32.353C72.5281 32.0843 72.1294 31.6943 71.8608 31.183L72.8488 30.624C73.2041 31.352 73.9104 31.716 74.9678 31.716C75.6438 31.716 76.1724 31.5383 76.5538 31.183C76.9438 30.8277 77.1388 30.3423 77.1388 29.727V28.804C76.5668 29.6707 75.7521 30.104 74.6948 30.104C73.7674 30.104 72.9831 29.7747 72.3418 29.116C71.7004 28.4573 71.3798 27.6557 71.3798 26.711C71.3798 25.7663 71.7004 24.969 72.3418 24.319C72.9831 23.6603 73.7674 23.331 74.6948 23.331C75.7608 23.331 76.5754 23.76 77.1388 24.618V23.5ZM73.1738 28.362C73.6158 28.804 74.1661 29.025 74.8248 29.025C75.4834 29.025 76.0338 28.804 76.4758 28.362C76.9178 27.92 77.1388 27.3697 77.1388 26.711C77.1388 26.061 76.9178 25.515 76.4758 25.073C76.0338 24.631 75.4834 24.41 74.8248 24.41C74.1661 24.41 73.6158 24.631 73.1738 25.073C72.7318 25.515 72.5108 26.061 72.5108 26.711C72.5108 27.3697 72.7318 27.92 73.1738 28.362Z" fill="white"/>
<path d="M79.9703 30V20.51H81.1013V30H79.9703Z" fill="white"/>
<path d="M83.6198 27.27C83.7324 27.8507 83.9968 28.3013 84.4128 28.622C84.8374 28.9427 85.3574 29.103 85.9728 29.103C86.8308 29.103 87.4548 28.7867 87.8448 28.154L88.8068 28.7C88.1741 29.6793 87.2208 30.169 85.9468 30.169C84.9154 30.169 84.0748 29.8483 83.4248 29.207C82.7834 28.557 82.4628 27.738 82.4628 26.75C82.4628 25.7707 82.7791 24.956 83.4118 24.306C84.0444 23.656 84.8634 23.331 85.8688 23.331C86.8221 23.331 87.5978 23.669 88.1958 24.345C88.8024 25.0123 89.1058 25.8183 89.1058 26.763C89.1058 26.9277 89.0928 27.0967 89.0668 27.27H83.6198ZM85.8688 24.397C85.2621 24.397 84.7594 24.5703 84.3608 24.917C83.9621 25.255 83.7151 25.71 83.6198 26.282H87.9618C87.8664 25.6667 87.6238 25.1987 87.2338 24.878C86.8438 24.5573 86.3888 24.397 85.8688 24.397Z" fill="white"/>
<path d="M97.0749 20.9C97.9155 20.9 98.6132 21.1817 99.1679 21.745C99.7312 22.2997 100.013 22.993 100.013 23.825C100.013 24.6483 99.7312 25.3417 99.1679 25.905C98.6132 26.4683 97.9155 26.75 97.0749 26.75H94.9819V30H93.7729V20.9H97.0749ZM97.0749 25.619C97.5775 25.619 97.9935 25.45 98.3229 25.112C98.6522 24.7653 98.8169 24.3363 98.8169 23.825C98.8169 23.305 98.6522 22.876 98.3229 22.538C97.9935 22.2 97.5775 22.031 97.0749 22.031H94.9819V25.619H97.0749Z" fill="white"/>
<path d="M101.324 30V20.51H102.455V30H101.324Z" fill="white"/>
<path d="M109.562 23.5H110.693V30H109.562V28.882C108.999 29.74 108.18 30.169 107.105 30.169C106.195 30.169 105.42 29.8397 104.778 29.181C104.137 28.5137 103.816 27.7033 103.816 26.75C103.816 25.7967 104.137 24.9907 104.778 24.332C105.42 23.6647 106.195 23.331 107.105 23.331C108.18 23.331 108.999 23.76 109.562 24.618V23.5ZM107.248 29.077C107.907 29.077 108.457 28.856 108.899 28.414C109.341 27.9633 109.562 27.4087 109.562 26.75C109.562 26.0913 109.341 25.541 108.899 25.099C108.457 24.6483 107.907 24.423 107.248 24.423C106.598 24.423 106.052 24.6483 105.61 25.099C105.168 25.541 104.947 26.0913 104.947 26.75C104.947 27.4087 105.168 27.9633 105.61 28.414C106.052 28.856 106.598 29.077 107.248 29.077Z" fill="white"/>
<path d="M116.944 23.5H118.153L115.501 30.403C115.224 31.1397 114.834 31.6987 114.331 32.08C113.837 32.47 113.265 32.6433 112.615 32.6V31.547C113.412 31.6077 113.997 31.1657 114.37 30.221L114.487 29.974L111.653 23.5H112.862L115.072 28.596L116.944 23.5Z" fill="white"/>
<path d="M31.1508 25.5899L27.8363 22.2777L31.4915 18.6237L34.7383 20.4472C35.3616 20.7261 35.7786 21.3278 35.821 22.0094C35.7788 22.6916 35.3612 23.2939 34.7372 23.5727L31.1508 25.5899Z" fill="#FFDA01"/>
<path fill-rule="evenodd" clip-rule="evenodd" d="M16.942 31.7242C16.9418 31.7239 16.9421 31.7244 16.942 31.7242V31.7242Z" fill="#FFDA01"/>
<path d="M16.6666 30.5925C16.6559 30.9875 16.7509 31.3783 16.9419 31.7242L26.3884 22.2765L16.7833 12.669C16.7044 12.9172 16.665 13.1763 16.6666 13.4367V30.5925Z" fill="#0FD5FD"/>
<path fill-rule="evenodd" clip-rule="evenodd" d="M16.9419 31.7242C16.9418 31.7239 16.9421 31.7244 16.9419 31.7242V31.7242Z" fill="#06EA76"/>
<path d="M27.1129 21.5497L17.3829 11.8209C17.6501 11.6233 17.9735 11.5166 18.3058 11.5164C18.6982 11.5303 19.081 11.6413 19.4199 11.8395L30.5628 18.1022L27.1129 21.5497Z" fill="#06EA76"/>
<path d="M18.2999 32.5C18.1009 32.5032 17.9031 32.4692 17.7166 32.3997L27.1129 22.9999L30.2233 26.1137L19.4258 32.1804C19.0837 32.3808 18.6963 32.4908 18.2999 32.5Z" fill="#F73448"/>
</svg>
