<svg width="1856" height="850" viewBox="0 0 1856 850" fill="none" xmlns="http://www.w3.org/2000/svg" preserveAspectRatio="none">
<g clip-path="url(#clip0_3364_953)">
<rect width="1856" height="850" fill="url(#paint0_linear_3364_953)"/>
<g filter="url(#filter0_f_3364_953)">
<path d="M652.831 55.4827C614.1 257.648 471.547 171.455 220.166 123.294C-31.2151 75.1331 -457.51 203.047 -418.778 0.881802C-380.046 -201.283 -1094.69 -528.671 -843.313 -480.51C-591.932 -432.349 691.563 -146.682 652.831 55.4827Z" fill="#8ACECF"/>
</g>
<g filter="url(#filter1_f_3364_953)">
<path d="M1296.11 -566.49C1452.84 -423.174 1321.33 -367.772 1178.02 -211.037C1034.7 -54.3021 970.479 330.658 813.744 187.342C657.009 44.0254 87.0683 381.306 230.384 224.571C373.701 67.8358 1139.37 -709.806 1296.11 -566.49Z" fill="#C28686"/>
</g>
<g filter="url(#filter2_f_3364_953)">
<path d="M1037.28 1130.66C998.193 1292.77 910.225 1223.37 748.112 1184.29C585.999 1145.21 296.982 1247.06 336.064 1084.95C375.147 922.839 -72.9038 658.931 89.2091 698.013C251.322 737.096 1076.36 968.545 1037.28 1130.66Z" fill="#A486C2"/>
</g>
<g filter="url(#filter3_f_3364_953)">
<path d="M2250.82 2001.72C1990.86 2135.85 1982.03 1939.5 1847.9 1679.54C1713.78 1419.58 1247.04 1152.92 1506.99 1018.79C1766.95 884.668 1603.12 -12.6587 1737.25 247.3C1871.37 507.259 2510.78 1867.6 2250.82 2001.72Z" fill="#E9AD79"/>
</g>
<path d="M2218.86 870.634C1962.08 862.329 1380.94 427.826 1470.2 132.682C1559.45 -162.463 965.675 7.41118 465.329 -146.884" stroke="#E9AD79" stroke-width="2" stroke-dasharray="4 8"/>
<path d="M2221.46 879.553C2000.3 877.382 1573.46 795.842 1635.4 487.051C1697.35 178.261 900.216 1.05128 493.906 -48.9547" stroke="#8ACECF" stroke-width="2"/>
</g>
<defs>
<filter id="filter0_f_3364_953" x="-1247.03" y="-835.284" width="2250.72" height="1368.67" filterUnits="userSpaceOnUse" color-interpolation-filters="sRGB">
<feFlood flood-opacity="0" result="BackgroundImageFix"/>
<feBlend mode="normal" in="SourceGraphic" in2="BackgroundImageFix" result="shape"/>
<feGaussianBlur stdDeviation="175" result="effect1_foregroundBlur_3364_953"/>
</filter>
<filter id="filter1_f_3364_953" x="-142.518" y="-934.025" width="1859.6" height="1551.16" filterUnits="userSpaceOnUse" color-interpolation-filters="sRGB">
<feFlood flood-opacity="0" result="BackgroundImageFix"/>
<feBlend mode="normal" in="SourceGraphic" in2="BackgroundImageFix" result="shape"/>
<feGaussianBlur stdDeviation="175" result="effect1_foregroundBlur_3364_953"/>
</filter>
<filter id="filter2_f_3364_953" x="-346.283" y="294.116" width="1784.9" height="1338.92" filterUnits="userSpaceOnUse" color-interpolation-filters="sRGB">
<feFlood flood-opacity="0" result="BackgroundImageFix"/>
<feBlend mode="normal" in="SourceGraphic" in2="BackgroundImageFix" result="shape"/>
<feGaussianBlur stdDeviation="200" result="effect1_foregroundBlur_3364_953"/>
</filter>
<filter id="filter3_f_3364_953" x="1029.55" y="-199.688" width="1682.8" height="2644.8" filterUnits="userSpaceOnUse" color-interpolation-filters="sRGB">
<feFlood flood-opacity="0" result="BackgroundImageFix"/>
<feBlend mode="normal" in="SourceGraphic" in2="BackgroundImageFix" result="shape"/>
<feGaussianBlur stdDeviation="200" result="effect1_foregroundBlur_3364_953"/>
</filter>
<linearGradient id="paint0_linear_3364_953" x1="1575.02" y1="850" x2="1121.25" y2="-357.23" gradientUnits="userSpaceOnUse">
<stop stop-color="#20222F"/>
<stop offset="1" stop-color="#4A4D62"/>
</linearGradient>
<clipPath id="clip0_3364_953">
<rect width="1856" height="850" fill="white"/>
</clipPath>
</defs>
</svg>
