<svg width="110" height="86" viewBox="0 0 110 86" fill="none" xmlns="http://www.w3.org/2000/svg">
<path d="M28.7034 68V56.8H33.9034C35.194 56.8 36.17 57.1307 36.8314 57.792C37.3434 58.304 37.5994 58.9493 37.5994 59.728C37.5994 60.784 37.1087 61.5893 36.1274 62.144C36.8207 62.4107 37.3434 62.7627 37.6954 63.2C38.0474 63.6267 38.2234 64.2027 38.2234 64.928C38.2234 65.9307 37.85 66.6933 37.1034 67.216C36.3567 67.7387 35.3327 68 34.0314 68H28.7034ZM31.1034 61.328H33.3754C34.5594 61.328 35.1514 60.9227 35.1514 60.112C35.1514 59.7387 35.0127 59.456 34.7354 59.264C34.458 59.0613 34.058 58.96 33.5354 58.96H31.1034V61.328ZM31.1034 65.84H34.0314C35.194 65.84 35.7754 65.424 35.7754 64.592C35.7754 63.7813 35.1674 63.376 33.9514 63.376H31.1034V65.84ZM43.0583 68.192C41.7569 68.192 40.6849 67.7813 39.8423 66.96C38.9996 66.128 38.5783 65.0507 38.5783 63.728C38.5783 62.48 38.9783 61.424 39.7783 60.56C40.5783 59.696 41.5916 59.264 42.8183 59.264C44.1729 59.264 45.2076 59.712 45.9223 60.608C46.6369 61.504 46.9943 62.608 46.9943 63.92C46.9943 64.048 46.9836 64.2613 46.9623 64.56H40.9943C41.1116 65.104 41.3516 65.52 41.7143 65.808C42.0769 66.096 42.5356 66.24 43.0903 66.24C43.8476 66.24 44.5409 65.9467 45.1703 65.36L46.5623 66.592C45.6983 67.6587 44.5303 68.192 43.0583 68.192ZM40.9623 63.04H44.6263C44.5516 62.4853 44.3543 62.0427 44.0343 61.712C43.7249 61.3813 43.3196 61.216 42.8183 61.216C42.3276 61.216 41.9169 61.3813 41.5863 61.712C41.2663 62.032 41.0583 62.4747 40.9623 63.04ZM47.5545 68V65.44H50.1465V68H47.5545ZM51.4846 68V56.8H56.6046C58.0233 56.8 59.1113 57.1787 59.8686 57.936C60.5086 58.576 60.8286 59.44 60.8286 60.528C60.8286 62.2453 60.0286 63.4027 58.4286 64L61.1646 68H58.2846L55.8526 64.416H53.9486V68H51.4846ZM53.9486 62.24H56.4446C57.042 62.24 57.506 62.096 57.8366 61.808C58.1673 61.5093 58.3326 61.1147 58.3326 60.624C58.3326 60.1013 58.162 59.7067 57.8206 59.44C57.4793 59.1627 57.0046 59.024 56.3966 59.024H53.9486V62.24ZM61.8391 58.48V56.32H64.3991V58.48H61.8391ZM61.9031 68V59.424H64.3351V68H61.9031ZM69.6673 68.192C68.3873 68.192 67.3206 67.76 66.4673 66.896C65.6246 66.032 65.2033 64.976 65.2033 63.728C65.2033 62.4907 65.6299 61.44 66.4833 60.576C67.3366 59.7013 68.4086 59.264 69.6993 59.264C71.0753 59.264 72.2113 59.7653 73.1073 60.768L71.6833 62.208C71.0859 61.6427 70.4193 61.36 69.6833 61.36C69.0859 61.36 68.5899 61.5893 68.1953 62.048C67.8006 62.5067 67.6033 63.0667 67.6033 63.728C67.6033 64.4 67.8006 64.9653 68.1953 65.424C68.6006 65.872 69.1286 66.096 69.7793 66.096C70.4513 66.096 71.1073 65.792 71.7473 65.184L73.1713 66.624C72.7019 67.136 72.2006 67.5253 71.6673 67.792C71.1339 68.0587 70.4673 68.192 69.6673 68.192ZM73.7599 68V56.32H76.1919V60.64C76.9065 59.7227 77.7439 59.264 78.7039 59.264C79.6212 59.264 80.3359 59.5467 80.8479 60.112C81.3599 60.6773 81.6159 61.456 81.6159 62.448V68H79.1839V63.216C79.1839 62.6507 79.0559 62.2187 78.7999 61.92C78.5439 61.6213 78.1812 61.472 77.7119 61.472C77.2425 61.472 76.8692 61.6213 76.5919 61.92C76.3252 62.2187 76.1919 62.6507 76.1919 63.216V68H73.7599Z" fill="white"/>
<path d="M1.65034 84V75.6H7.56634V76.176H2.27434V79.62H7.02634V80.196H2.27434V84H1.65034ZM9.47734 84V77.88H10.0653V84H9.47734ZM9.40534 76.284V75.48H10.1373V76.284H9.40534ZM12.3816 84V77.88H12.9696V79.02C13.4576 78.164 14.1936 77.736 15.1776 77.736C15.9376 77.736 16.5336 77.972 16.9656 78.444C17.4056 78.908 17.6256 79.512 17.6256 80.256V84H17.0376V80.364C17.0376 79.724 16.8656 79.216 16.5216 78.84C16.1776 78.464 15.7016 78.276 15.0936 78.276C14.4856 78.276 13.9776 78.484 13.5696 78.9C13.1696 79.308 12.9696 79.828 12.9696 80.46V84H12.3816ZM21.601 84.144C20.977 84.144 20.425 83.972 19.945 83.628C19.473 83.284 19.237 82.808 19.237 82.2C19.237 81.576 19.481 81.088 19.969 80.736C20.457 80.384 21.105 80.208 21.913 80.208C22.601 80.208 23.277 80.296 23.941 80.472V80.208C23.941 79.6 23.765 79.136 23.413 78.816C23.061 78.496 22.565 78.336 21.925 78.336C21.285 78.336 20.645 78.5 20.005 78.828L19.789 78.312C20.549 77.96 21.273 77.784 21.961 77.784C22.801 77.784 23.445 78.008 23.893 78.456C24.309 78.872 24.517 79.448 24.517 80.184V84H23.941V82.98C23.389 83.756 22.609 84.144 21.601 84.144ZM21.637 83.592C22.277 83.592 22.821 83.416 23.269 83.064C23.725 82.704 23.953 82.252 23.953 81.708V81.012C23.233 80.828 22.541 80.736 21.877 80.736C21.237 80.736 20.741 80.868 20.389 81.132C20.037 81.388 19.861 81.74 19.861 82.188C19.861 82.612 20.033 82.952 20.377 83.208C20.729 83.464 21.149 83.592 21.637 83.592ZM26.6316 84V77.88H27.2196V79.02C27.7076 78.164 28.4436 77.736 29.4276 77.736C30.1876 77.736 30.7836 77.972 31.2156 78.444C31.6556 78.908 31.8756 79.512 31.8756 80.256V84H31.2876V80.364C31.2876 79.724 31.1156 79.216 30.7716 78.84C30.4276 78.464 29.9516 78.276 29.3436 78.276C28.7356 78.276 28.2276 78.484 27.8196 78.9C27.4196 79.308 27.2196 79.828 27.2196 80.46V84H26.6316ZM36.691 84.144C35.811 84.144 35.071 83.832 34.471 83.208C33.871 82.584 33.571 81.828 33.571 80.94C33.571 80.06 33.871 79.308 34.471 78.684C35.079 78.052 35.819 77.736 36.691 77.736C37.643 77.736 38.455 78.116 39.127 78.876L38.719 79.296C38.063 78.624 37.383 78.288 36.679 78.288C35.999 78.288 35.415 78.548 34.927 79.068C34.447 79.588 34.207 80.212 34.207 80.94C34.207 81.676 34.451 82.304 34.939 82.824C35.427 83.336 36.023 83.592 36.727 83.592C37.455 83.592 38.131 83.244 38.755 82.548L39.187 82.932C38.475 83.74 37.643 84.144 36.691 84.144ZM40.9305 84V77.88H41.5185V84H40.9305ZM40.8585 76.284V75.48H41.5905V76.284H40.8585ZM45.6948 84.144C45.0708 84.144 44.5188 83.972 44.0388 83.628C43.5668 83.284 43.3308 82.808 43.3308 82.2C43.3308 81.576 43.5748 81.088 44.0628 80.736C44.5508 80.384 45.1988 80.208 46.0068 80.208C46.6948 80.208 47.3708 80.296 48.0348 80.472V80.208C48.0348 79.6 47.8588 79.136 47.5068 78.816C47.1548 78.496 46.6588 78.336 46.0188 78.336C45.3788 78.336 44.7388 78.5 44.0988 78.828L43.8828 78.312C44.6428 77.96 45.3668 77.784 46.0548 77.784C46.8948 77.784 47.5388 78.008 47.9868 78.456C48.4028 78.872 48.6108 79.448 48.6108 80.184V84H48.0348V82.98C47.4828 83.756 46.7028 84.144 45.6948 84.144ZM45.7308 83.592C46.3708 83.592 46.9148 83.416 47.3628 83.064C47.8188 82.704 48.0468 82.252 48.0468 81.708V81.012C47.3268 80.828 46.6348 80.736 45.9708 80.736C45.3308 80.736 44.8348 80.868 44.4827 81.132C44.1308 81.388 43.9548 81.74 43.9548 82.188C43.9548 82.612 44.1268 82.952 44.4708 83.208C44.8228 83.464 45.2428 83.592 45.7308 83.592ZM50.8094 84V75.24H51.3974V84H50.8094ZM57.4433 84V75.6H63.3593V76.176H58.0673V79.62H62.8193V80.196H58.0673V84H57.4433ZM65.1863 84V77.88H65.7743V79.62C66.0223 79.06 66.3863 78.608 66.8663 78.264C67.3543 77.92 67.8943 77.76 68.4863 77.784V78.432H68.4263C67.6823 78.432 67.0543 78.704 66.5423 79.248C66.0303 79.792 65.7743 80.54 65.7743 81.492V84H65.1863ZM72.2663 84.144C71.4423 84.144 70.7343 83.844 70.1423 83.244C69.5583 82.644 69.2663 81.872 69.2663 80.928C69.2663 80.032 69.5423 79.276 70.0943 78.66C70.6543 78.044 71.3463 77.736 72.1703 77.736C73.0103 77.736 73.6863 78.04 74.1983 78.648C74.7183 79.256 74.9783 80.02 74.9783 80.94C74.9783 81.036 74.9743 81.116 74.9663 81.18H69.8903C69.9463 81.916 70.2023 82.504 70.6583 82.944C71.1223 83.376 71.6663 83.592 72.2903 83.592C73.0903 83.592 73.7903 83.272 74.3903 82.632L74.7983 82.992C74.0863 83.76 73.2423 84.144 72.2663 84.144ZM69.8903 80.652H74.3423C74.2943 79.98 74.0823 79.416 73.7063 78.96C73.3303 78.504 72.8103 78.276 72.1463 78.276C71.5463 78.276 71.0343 78.504 70.6103 78.96C70.1863 79.408 69.9463 79.972 69.8903 80.652ZM79.2741 84.144C78.4501 84.144 77.7421 83.844 77.1501 83.244C76.5661 82.644 76.2741 81.872 76.2741 80.928C76.2741 80.032 76.5501 79.276 77.1021 78.66C77.6621 78.044 78.3541 77.736 79.1781 77.736C80.0181 77.736 80.6941 78.04 81.2061 78.648C81.7261 79.256 81.9861 80.02 81.9861 80.94C81.9861 81.036 81.9821 81.116 81.9741 81.18H76.8981C76.9541 81.916 77.2101 82.504 77.6661 82.944C78.1301 83.376 78.6741 83.592 79.2981 83.592C80.0981 83.592 80.7981 83.272 81.3981 82.632L81.8061 82.992C81.0941 83.76 80.2501 84.144 79.2741 84.144ZM76.8981 80.652H81.3501C81.3021 79.98 81.0901 79.416 80.7141 78.96C80.3381 78.504 79.8181 78.276 79.1541 78.276C78.5541 78.276 78.0421 78.504 77.6181 78.96C77.1941 79.408 76.9541 79.972 76.8981 80.652ZM86.2819 84.144C85.4979 84.144 84.8059 83.852 84.2059 83.268C83.6059 82.676 83.3059 81.9 83.3059 80.94C83.3059 79.988 83.6059 79.216 84.2059 78.624C84.8059 78.032 85.4979 77.736 86.2819 77.736C87.3219 77.736 88.1619 78.224 88.8019 79.2V75.24H89.3899V84H88.8019V82.632C88.1379 83.64 87.2979 84.144 86.2819 84.144ZM84.6379 82.848C85.1099 83.336 85.6779 83.58 86.3419 83.58C87.0059 83.58 87.5859 83.332 88.0819 82.836C88.5859 82.332 88.8379 81.696 88.8379 80.928C88.8379 80.168 88.5859 79.54 88.0819 79.044C87.5859 78.548 87.0059 78.3 86.3419 78.3C85.6539 78.3 85.0819 78.54 84.6259 79.02C84.1699 79.492 83.9419 80.132 83.9419 80.94C83.9419 81.724 84.1739 82.36 84.6379 82.848ZM96.5798 83.196C95.9798 83.828 95.2318 84.144 94.3358 84.144C93.4398 84.144 92.6918 83.832 92.0918 83.208C91.4998 82.576 91.2038 81.82 91.2038 80.94C91.2038 80.068 91.5038 79.316 92.1038 78.684C92.7118 78.052 93.4638 77.736 94.3598 77.736C95.2558 77.736 95.9998 78.052 96.5918 78.684C97.1918 79.308 97.4918 80.06 97.4918 80.94C97.4918 81.812 97.1878 82.564 96.5798 83.196ZM94.3598 83.592C95.0398 83.592 95.6238 83.332 96.1118 82.812C96.6078 82.292 96.8558 81.668 96.8558 80.94C96.8558 80.204 96.6078 79.58 96.1118 79.068C95.6238 78.548 95.0318 78.288 94.3358 78.288C93.6478 78.288 93.0598 78.548 92.5718 79.068C92.0838 79.58 91.8398 80.204 91.8398 80.94C91.8398 81.676 92.0838 82.304 92.5718 82.824C93.0598 83.336 93.6558 83.592 94.3598 83.592ZM99.2996 84V77.88H99.8876V78.972C100.128 78.588 100.404 78.288 100.716 78.072C101.028 77.848 101.432 77.736 101.928 77.736C102.888 77.736 103.576 78.176 103.992 79.056C104.504 78.176 105.24 77.736 106.2 77.736C106.92 77.736 107.492 77.968 107.916 78.432C108.34 78.896 108.552 79.516 108.552 80.292V84H107.964V80.364C107.964 79.708 107.804 79.196 107.484 78.828C107.164 78.46 106.72 78.276 106.152 78.276C105.616 78.276 105.16 78.472 104.784 78.864C104.408 79.256 104.22 79.78 104.22 80.436V84H103.632V80.328C103.632 79.696 103.468 79.196 103.14 78.828C102.82 78.46 102.388 78.276 101.844 78.276C101.3 78.276 100.836 78.488 100.452 78.912C100.076 79.336 99.8876 79.856 99.8876 80.472V84H99.2996Z" fill="white"/>
<rect x="31" width="48" height="48" rx="12" fill="url(#paint0_linear_4511_4871)"/>
<path d="M65.7615 36.4821C65.7615 36.6928 65.6883 36.8747 65.5419 37.0279C65.3955 37.1748 65.2172 37.2482 65.0072 37.2482C64.7971 37.2482 64.6157 37.1748 64.4629 37.0279C64.3165 36.8747 64.2433 36.6928 64.2433 36.4821C64.2433 36.2715 64.3165 36.0927 64.4629 35.9459C64.6157 35.7927 64.7971 35.7161 65.0072 35.7161C65.2172 35.7161 65.3955 35.7927 65.5419 35.9459C65.6883 36.0927 65.7615 36.2715 65.7615 36.4821Z" fill="white"/>
<path fill-rule="evenodd" clip-rule="evenodd" d="M45.8222 25.466L64.1778 25.466C63.9766 23.3098 63.0911 21.4398 61.5213 19.8559C59.7207 18.0393 57.5469 17.1309 55 17.1309C52.453 17.1309 50.2793 18.0393 48.4787 19.8559C46.9089 21.4398 46.0234 23.3098 45.8222 25.466ZM64.2063 27.0195L45.7937 27.0194C45.921 29.339 46.8161 31.3376 48.4787 33.0151C50.2793 34.8318 52.453 35.7401 55 35.7401C57.5469 35.7401 59.7207 34.8318 61.5213 33.0151C63.1839 31.3376 64.0789 29.339 64.2063 27.0195ZM44.2385 10.7067H45.7778V20.8725C46.7294 19.2629 48.0122 17.9875 49.6262 17.0462C51.2869 16.0673 53.0781 15.5778 55 15.5778C57.9667 15.5778 60.4997 16.6415 62.5988 18.7688C64.7073 20.8866 65.7615 23.4422 65.7615 26.4355C65.7615 29.4288 64.7073 31.9891 62.5988 34.1164C60.4997 36.2343 57.9667 37.2932 55 37.2932C52.0332 37.2932 49.4956 36.2343 47.3872 34.1164C45.288 31.9891 44.2385 29.4288 44.2385 26.4355V10.7067Z" fill="white"/>
<defs>
<linearGradient id="paint0_linear_4511_4871" x1="71.7333" y1="48" x2="33.5778" y2="1.51111" gradientUnits="userSpaceOnUse">
<stop stop-color="#20222F"/>
<stop offset="1" stop-color="#4A4D62"/>
</linearGradient>
</defs>
</svg>
