<svg width="150" height="32" viewBox="0 0 150 32" fill="none" xmlns="http://www.w3.org/2000/svg">
<rect width="32" height="32" rx="8" fill="url(#paint0_linear_3384_4662)"/>
<path d="M23.1744 24.3212C23.1744 24.4617 23.1256 24.583 23.028 24.6851C22.9304 24.783 22.8115 24.832 22.6715 24.832C22.5314 24.832 22.4105 24.783 22.3086 24.6851C22.211 24.583 22.1622 24.4617 22.1622 24.3212C22.1622 24.1808 22.211 24.0616 22.3086 23.9638C22.4105 23.8616 22.5314 23.8105 22.6715 23.8105C22.8115 23.8105 22.9304 23.8616 23.028 23.9638C23.1256 24.0616 23.1744 24.1808 23.1744 24.3212Z" fill="white"/>
<path fill-rule="evenodd" clip-rule="evenodd" d="M9.8815 16.9773L22.1186 16.9773C21.9844 15.5398 21.3941 14.2931 20.3476 13.2372C19.1472 12.0261 17.698 11.4205 16 11.4205C14.3021 11.4205 12.8529 12.0261 11.6525 13.2372C10.606 14.2931 10.0156 15.5398 9.8815 16.9773ZM22.1376 18.0129L9.86249 18.0129C9.9474 19.5593 10.5441 20.8916 11.6525 22.01C12.8529 23.2211 14.3021 23.8267 16 23.8267C17.698 23.8267 19.1472 23.2211 20.3476 22.01C21.456 20.8916 22.0527 19.5593 22.1376 18.0129ZM8.82568 7.1377H9.85192V13.9149C10.4863 12.8419 11.3415 11.9916 12.4175 11.3641C13.5246 10.7114 14.7188 10.3851 16 10.3851C17.9779 10.3851 19.6665 11.0942 21.0659 12.5124C22.4716 13.9244 23.1744 15.6281 23.1744 17.6236C23.1744 19.6191 22.4716 21.326 21.0659 22.7442C19.6665 24.1561 17.9779 24.8621 16 24.8621C14.0222 24.8621 12.3304 24.1561 10.9248 22.7442C9.52539 21.326 8.82568 19.6191 8.82568 17.6236V7.1377Z" fill="white"/>
<path d="M41.3655 12V2.2H45.9155C47.0448 2.2 47.8988 2.48933 48.4775 3.068C48.9255 3.516 49.1495 4.08067 49.1495 4.762C49.1495 5.686 48.7201 6.39067 47.8615 6.876C48.4681 7.10933 48.9255 7.41733 49.2335 7.8C49.5415 8.17333 49.6955 8.67733 49.6955 9.312C49.6955 10.1893 49.3688 10.8567 48.7155 11.314C48.0621 11.7713 47.1661 12 46.0275 12H41.3655ZM43.4655 6.162H45.4535C46.4895 6.162 47.0075 5.80733 47.0075 5.098C47.0075 4.77133 46.8861 4.524 46.6435 4.356C46.4008 4.17867 46.0508 4.09 45.5935 4.09H43.4655V6.162ZM43.4655 10.11H46.0275C47.0448 10.11 47.5535 9.746 47.5535 9.018C47.5535 8.30867 47.0215 7.954 45.9575 7.954H43.4655V10.11ZM53.801 12.168C52.6623 12.168 51.7243 11.8087 50.987 11.09C50.2496 10.362 49.881 9.41933 49.881 8.262C49.881 7.17 50.231 6.246 50.931 5.49C51.631 4.734 52.5176 4.356 53.591 4.356C54.7763 4.356 55.6816 4.748 56.307 5.532C56.9323 6.316 57.245 7.282 57.245 8.43C57.245 8.542 57.2356 8.72867 57.217 8.99H51.995C52.0976 9.466 52.3076 9.83 52.625 10.082C52.9423 10.334 53.3436 10.46 53.829 10.46C54.4916 10.46 55.0983 10.2033 55.649 9.69L56.867 10.768C56.111 11.7013 55.089 12.168 53.801 12.168ZM51.967 7.66H55.173C55.1076 7.17467 54.935 6.78733 54.655 6.498C54.3843 6.20867 54.0296 6.064 53.591 6.064C53.1616 6.064 52.8023 6.20867 52.513 6.498C52.233 6.778 52.051 7.16533 51.967 7.66ZM57.6102 12V9.76H59.8782V12H57.6102ZM60.924 12V2.2H65.404C66.6454 2.2 67.5974 2.53133 68.26 3.194C68.82 3.754 69.1 4.51 69.1 5.462C69.1 6.96467 68.4 7.97733 67 8.5L69.394 12H66.874L64.746 8.864H63.08V12H60.924ZM63.08 6.96H65.264C65.7867 6.96 66.1927 6.834 66.482 6.582C66.7714 6.32067 66.916 5.97533 66.916 5.546C66.916 5.08867 66.7667 4.74333 66.468 4.51C66.1694 4.26733 65.754 4.146 65.222 4.146H63.08V6.96ZM69.8592 3.67V1.78H72.0992V3.67H69.8592ZM69.9152 12V4.496H72.0432V12H69.9152ZM76.5838 12.168C75.4638 12.168 74.5305 11.79 73.7838 11.034C73.0465 10.278 72.6778 9.354 72.6778 8.262C72.6778 7.17933 73.0512 6.26 73.7978 5.504C74.5445 4.73867 75.4825 4.356 76.6118 4.356C77.8158 4.356 78.8098 4.79467 79.5938 5.672L78.3478 6.932C77.8252 6.43733 77.2418 6.19 76.5978 6.19C76.0752 6.19 75.6412 6.39067 75.2958 6.792C74.9505 7.19333 74.7778 7.68333 74.7778 8.262C74.7778 8.85 74.9505 9.34467 75.2958 9.746C75.6505 10.138 76.1125 10.334 76.6818 10.334C77.2698 10.334 77.8438 10.068 78.4038 9.536L79.6498 10.796C79.2392 11.244 78.8005 11.5847 78.3338 11.818C77.8672 12.0513 77.2838 12.168 76.5838 12.168ZM80.0399 12V1.78H82.1679V5.56C82.7932 4.75733 83.5259 4.356 84.3659 4.356C85.1686 4.356 85.7939 4.60333 86.2419 5.098C86.6899 5.59267 86.9139 6.274 86.9139 7.142V12H84.7859V7.814C84.7859 7.31933 84.6739 6.94133 84.4499 6.68C84.2259 6.41867 83.9086 6.288 83.4979 6.288C83.0872 6.288 82.7606 6.41867 82.5179 6.68C82.2846 6.94133 82.1679 7.31933 82.1679 7.814V12H80.0399Z" fill="white"/>
<path d="M41.6503 28V19.6H47.5663V20.176H42.2743V23.62H47.0263V24.196H42.2743V28H41.6503ZM49.4773 28V21.88H50.0653V28H49.4773ZM49.4053 20.284V19.48H50.1373V20.284H49.4053ZM52.3816 28V21.88H52.9696V23.02C53.4576 22.164 54.1936 21.736 55.1776 21.736C55.9376 21.736 56.5336 21.972 56.9656 22.444C57.4056 22.908 57.6256 23.512 57.6256 24.256V28H57.0376V24.364C57.0376 23.724 56.8656 23.216 56.5216 22.84C56.1776 22.464 55.7016 22.276 55.0936 22.276C54.4856 22.276 53.9776 22.484 53.5696 22.9C53.1696 23.308 52.9696 23.828 52.9696 24.46V28H52.3816ZM61.601 28.144C60.977 28.144 60.425 27.972 59.945 27.628C59.473 27.284 59.237 26.808 59.237 26.2C59.237 25.576 59.481 25.088 59.969 24.736C60.457 24.384 61.105 24.208 61.913 24.208C62.601 24.208 63.277 24.296 63.941 24.472V24.208C63.941 23.6 63.765 23.136 63.413 22.816C63.061 22.496 62.565 22.336 61.925 22.336C61.285 22.336 60.645 22.5 60.005 22.828L59.789 22.312C60.549 21.96 61.273 21.784 61.961 21.784C62.801 21.784 63.445 22.008 63.893 22.456C64.309 22.872 64.517 23.448 64.517 24.184V28H63.941V26.98C63.389 27.756 62.609 28.144 61.601 28.144ZM61.637 27.592C62.277 27.592 62.821 27.416 63.269 27.064C63.725 26.704 63.953 26.252 63.953 25.708V25.012C63.233 24.828 62.541 24.736 61.877 24.736C61.237 24.736 60.741 24.868 60.389 25.132C60.037 25.388 59.861 25.74 59.861 26.188C59.861 26.612 60.033 26.952 60.377 27.208C60.729 27.464 61.149 27.592 61.637 27.592ZM66.6316 28V21.88H67.2196V23.02C67.7076 22.164 68.4436 21.736 69.4276 21.736C70.1876 21.736 70.7836 21.972 71.2156 22.444C71.6556 22.908 71.8756 23.512 71.8756 24.256V28H71.2876V24.364C71.2876 23.724 71.1156 23.216 70.7716 22.84C70.4276 22.464 69.9516 22.276 69.3436 22.276C68.7356 22.276 68.2276 22.484 67.8196 22.9C67.4196 23.308 67.2196 23.828 67.2196 24.46V28H66.6316ZM76.691 28.144C75.811 28.144 75.071 27.832 74.471 27.208C73.871 26.584 73.571 25.828 73.571 24.94C73.571 24.06 73.871 23.308 74.471 22.684C75.079 22.052 75.819 21.736 76.691 21.736C77.643 21.736 78.455 22.116 79.127 22.876L78.719 23.296C78.063 22.624 77.383 22.288 76.679 22.288C75.999 22.288 75.415 22.548 74.927 23.068C74.447 23.588 74.207 24.212 74.207 24.94C74.207 25.676 74.451 26.304 74.939 26.824C75.427 27.336 76.023 27.592 76.727 27.592C77.455 27.592 78.131 27.244 78.755 26.548L79.187 26.932C78.475 27.74 77.643 28.144 76.691 28.144ZM80.9305 28V21.88H81.5185V28H80.9305ZM80.8585 20.284V19.48H81.5905V20.284H80.8585ZM85.6948 28.144C85.0708 28.144 84.5188 27.972 84.0388 27.628C83.5668 27.284 83.3308 26.808 83.3308 26.2C83.3308 25.576 83.5748 25.088 84.0628 24.736C84.5508 24.384 85.1988 24.208 86.0068 24.208C86.6948 24.208 87.3708 24.296 88.0348 24.472V24.208C88.0348 23.6 87.8588 23.136 87.5068 22.816C87.1548 22.496 86.6588 22.336 86.0188 22.336C85.3788 22.336 84.7388 22.5 84.0988 22.828L83.8828 22.312C84.6428 21.96 85.3668 21.784 86.0548 21.784C86.8948 21.784 87.5388 22.008 87.9868 22.456C88.4028 22.872 88.6108 23.448 88.6108 24.184V28H88.0348V26.98C87.4828 27.756 86.7028 28.144 85.6948 28.144ZM85.7308 27.592C86.3708 27.592 86.9148 27.416 87.3628 27.064C87.8188 26.704 88.0468 26.252 88.0468 25.708V25.012C87.3268 24.828 86.6348 24.736 85.9708 24.736C85.3308 24.736 84.8348 24.868 84.4827 25.132C84.1308 25.388 83.9548 25.74 83.9548 26.188C83.9548 26.612 84.1268 26.952 84.4708 27.208C84.8228 27.464 85.2428 27.592 85.7308 27.592ZM90.8094 28V19.24H91.3974V28H90.8094ZM97.4433 28V19.6H103.359V20.176H98.0673V23.62H102.819V24.196H98.0673V28H97.4433ZM105.186 28V21.88H105.774V23.62C106.022 23.06 106.386 22.608 106.866 22.264C107.354 21.92 107.894 21.76 108.486 21.784V22.432H108.426C107.682 22.432 107.054 22.704 106.542 23.248C106.03 23.792 105.774 24.54 105.774 25.492V28H105.186ZM112.266 28.144C111.442 28.144 110.734 27.844 110.142 27.244C109.558 26.644 109.266 25.872 109.266 24.928C109.266 24.032 109.542 23.276 110.094 22.66C110.654 22.044 111.346 21.736 112.17 21.736C113.01 21.736 113.686 22.04 114.198 22.648C114.718 23.256 114.978 24.02 114.978 24.94C114.978 25.036 114.974 25.116 114.966 25.18H109.89C109.946 25.916 110.202 26.504 110.658 26.944C111.122 27.376 111.666 27.592 112.29 27.592C113.09 27.592 113.79 27.272 114.39 26.632L114.798 26.992C114.086 27.76 113.242 28.144 112.266 28.144ZM109.89 24.652H114.342C114.294 23.98 114.082 23.416 113.706 22.96C113.33 22.504 112.81 22.276 112.146 22.276C111.546 22.276 111.034 22.504 110.61 22.96C110.186 23.408 109.946 23.972 109.89 24.652ZM119.274 28.144C118.45 28.144 117.742 27.844 117.15 27.244C116.566 26.644 116.274 25.872 116.274 24.928C116.274 24.032 116.55 23.276 117.102 22.66C117.662 22.044 118.354 21.736 119.178 21.736C120.018 21.736 120.694 22.04 121.206 22.648C121.726 23.256 121.986 24.02 121.986 24.94C121.986 25.036 121.982 25.116 121.974 25.18H116.898C116.954 25.916 117.21 26.504 117.666 26.944C118.13 27.376 118.674 27.592 119.298 27.592C120.098 27.592 120.798 27.272 121.398 26.632L121.806 26.992C121.094 27.76 120.25 28.144 119.274 28.144ZM116.898 24.652H121.35C121.302 23.98 121.09 23.416 120.714 22.96C120.338 22.504 119.818 22.276 119.154 22.276C118.554 22.276 118.042 22.504 117.618 22.96C117.194 23.408 116.954 23.972 116.898 24.652ZM126.282 28.144C125.498 28.144 124.806 27.852 124.206 27.268C123.606 26.676 123.306 25.9 123.306 24.94C123.306 23.988 123.606 23.216 124.206 22.624C124.806 22.032 125.498 21.736 126.282 21.736C127.322 21.736 128.162 22.224 128.802 23.2V19.24H129.39V28H128.802V26.632C128.138 27.64 127.298 28.144 126.282 28.144ZM124.638 26.848C125.11 27.336 125.678 27.58 126.342 27.58C127.006 27.58 127.586 27.332 128.082 26.836C128.586 26.332 128.838 25.696 128.838 24.928C128.838 24.168 128.586 23.54 128.082 23.044C127.586 22.548 127.006 22.3 126.342 22.3C125.654 22.3 125.082 22.54 124.626 23.02C124.17 23.492 123.942 24.132 123.942 24.94C123.942 25.724 124.174 26.36 124.638 26.848ZM136.58 27.196C135.98 27.828 135.232 28.144 134.336 28.144C133.44 28.144 132.692 27.832 132.092 27.208C131.5 26.576 131.204 25.82 131.204 24.94C131.204 24.068 131.504 23.316 132.104 22.684C132.712 22.052 133.464 21.736 134.36 21.736C135.256 21.736 136 22.052 136.592 22.684C137.192 23.308 137.492 24.06 137.492 24.94C137.492 25.812 137.188 26.564 136.58 27.196ZM134.36 27.592C135.04 27.592 135.624 27.332 136.112 26.812C136.608 26.292 136.856 25.668 136.856 24.94C136.856 24.204 136.608 23.58 136.112 23.068C135.624 22.548 135.032 22.288 134.336 22.288C133.648 22.288 133.06 22.548 132.572 23.068C132.084 23.58 131.84 24.204 131.84 24.94C131.84 25.676 132.084 26.304 132.572 26.824C133.06 27.336 133.656 27.592 134.36 27.592ZM139.3 28V21.88H139.888V22.972C140.128 22.588 140.404 22.288 140.716 22.072C141.028 21.848 141.432 21.736 141.928 21.736C142.888 21.736 143.576 22.176 143.992 23.056C144.504 22.176 145.24 21.736 146.2 21.736C146.92 21.736 147.492 21.968 147.916 22.432C148.34 22.896 148.552 23.516 148.552 24.292V28H147.964V24.364C147.964 23.708 147.804 23.196 147.484 22.828C147.164 22.46 146.72 22.276 146.152 22.276C145.616 22.276 145.16 22.472 144.784 22.864C144.408 23.256 144.22 23.78 144.22 24.436V28H143.632V24.328C143.632 23.696 143.468 23.196 143.14 22.828C142.82 22.46 142.388 22.276 141.844 22.276C141.3 22.276 140.836 22.488 140.452 22.912C140.076 23.336 139.888 23.856 139.888 24.472V28H139.3Z" fill="white"/>
<defs>
<linearGradient id="paint0_linear_3384_4662" x1="27.1556" y1="32" x2="1.71852" y2="1.00741" gradientUnits="userSpaceOnUse">
<stop stop-color="#20222F"/>
<stop offset="1" stop-color="#4A4D62"/>
</linearGradient>
</defs>
</svg>
