<svg width="170" height="48" viewBox="0 0 170 48" fill="none" xmlns="http://www.w3.org/2000/svg">
<rect width="48" height="48" rx="12" fill="url(#paint0_linear_3384_2727)"/>
<path d="M34.7615 36.4821C34.7615 36.6928 34.6883 36.8747 34.5419 37.0279C34.3955 37.1748 34.2173 37.2482 34.0072 37.2482C33.7971 37.2482 33.6157 37.1748 33.4629 37.0279C33.3165 36.8747 33.2433 36.6928 33.2433 36.4821C33.2433 36.2715 33.3165 36.0927 33.4629 35.9459C33.6157 35.7927 33.7971 35.7161 34.0072 35.7161C34.2173 35.7161 34.3955 35.7927 34.5419 35.9459C34.6883 36.0927 34.7615 36.2715 34.7615 36.4821Z" fill="white"/>
<path fill-rule="evenodd" clip-rule="evenodd" d="M14.8222 25.4661L33.1778 25.4661C32.9766 23.3099 32.0911 21.4399 30.5213 19.8561C28.7207 18.0394 26.5469 17.131 24 17.131C21.4531 17.131 19.2793 18.0394 17.4787 19.8561C15.9089 21.4399 15.0234 23.3099 14.8222 25.4661ZM33.2063 27.0196L14.7937 27.0196C14.9211 29.3392 15.8161 31.3377 17.4787 33.0152C19.2793 34.8319 21.4531 35.7402 24 35.7402C26.5469 35.7402 28.7207 34.8319 30.5213 33.0152C32.1839 31.3377 33.0789 29.3392 33.2063 27.0196ZM13.2385 10.7068H14.7778V20.8727C15.7294 19.2631 17.0122 17.9876 18.6262 17.0463C20.2869 16.0674 22.0781 15.5779 24 15.5779C26.9668 15.5779 29.4997 16.6416 31.5988 18.7689C33.7073 20.8868 34.7615 23.4424 34.7615 26.4356C34.7615 29.4289 33.7073 31.9892 31.5988 34.1165C29.4997 36.2344 26.9668 37.2933 24 37.2933C21.0332 37.2933 18.4956 36.2344 16.3872 34.1165C14.288 31.9892 13.2385 29.4289 13.2385 26.4356V10.7068Z" fill="white"/>
<path d="M61.7034 19V7.8H66.9034C68.194 7.8 69.17 8.13067 69.8314 8.792C70.3434 9.304 70.5994 9.94933 70.5994 10.728C70.5994 11.784 70.1087 12.5893 69.1274 13.144C69.8207 13.4107 70.3434 13.7627 70.6954 14.2C71.0474 14.6267 71.2234 15.2027 71.2234 15.928C71.2234 16.9307 70.85 17.6933 70.1034 18.216C69.3567 18.7387 68.3327 19 67.0314 19H61.7034ZM64.1034 12.328H66.3754C67.5594 12.328 68.1514 11.9227 68.1514 11.112C68.1514 10.7387 68.0127 10.456 67.7354 10.264C67.458 10.0613 67.058 9.96 66.5354 9.96H64.1034V12.328ZM64.1034 16.84H67.0314C68.194 16.84 68.7754 16.424 68.7754 15.592C68.7754 14.7813 68.1674 14.376 66.9514 14.376H64.1034V16.84ZM76.0583 19.192C74.7569 19.192 73.6849 18.7813 72.8423 17.96C71.9996 17.128 71.5783 16.0507 71.5783 14.728C71.5783 13.48 71.9783 12.424 72.7783 11.56C73.5783 10.696 74.5916 10.264 75.8183 10.264C77.1729 10.264 78.2076 10.712 78.9223 11.608C79.6369 12.504 79.9943 13.608 79.9943 14.92C79.9943 15.048 79.9836 15.2613 79.9623 15.56H73.9943C74.1116 16.104 74.3516 16.52 74.7143 16.808C75.0769 17.096 75.5356 17.24 76.0903 17.24C76.8476 17.24 77.5409 16.9467 78.1703 16.36L79.5623 17.592C78.6983 18.6587 77.5303 19.192 76.0583 19.192ZM73.9623 14.04H77.6263C77.5516 13.4853 77.3543 13.0427 77.0343 12.712C76.7249 12.3813 76.3196 12.216 75.8183 12.216C75.3276 12.216 74.9169 12.3813 74.5863 12.712C74.2663 13.032 74.0583 13.4747 73.9623 14.04ZM80.5545 19V16.44H83.1465V19H80.5545ZM84.4846 19V7.8H89.6046C91.0233 7.8 92.1113 8.17867 92.8686 8.936C93.5086 9.576 93.8286 10.44 93.8286 11.528C93.8286 13.2453 93.0286 14.4027 91.4286 15L94.1646 19H91.2846L88.8526 15.416H86.9486V19H84.4846ZM86.9486 13.24H89.4446C90.042 13.24 90.506 13.096 90.8366 12.808C91.1673 12.5093 91.3326 12.1147 91.3326 11.624C91.3326 11.1013 91.162 10.7067 90.8206 10.44C90.4793 10.1627 90.0046 10.024 89.3966 10.024H86.9486V13.24ZM94.8391 9.48V7.32H97.3991V9.48H94.8391ZM94.9031 19V10.424H97.3351V19H94.9031ZM102.667 19.192C101.387 19.192 100.321 18.76 99.4673 17.896C98.6246 17.032 98.2033 15.976 98.2033 14.728C98.2033 13.4907 98.6299 12.44 99.4833 11.576C100.337 10.7013 101.409 10.264 102.699 10.264C104.075 10.264 105.211 10.7653 106.107 11.768L104.683 13.208C104.086 12.6427 103.419 12.36 102.683 12.36C102.086 12.36 101.59 12.5893 101.195 13.048C100.801 13.5067 100.603 14.0667 100.603 14.728C100.603 15.4 100.801 15.9653 101.195 16.424C101.601 16.872 102.129 17.096 102.779 17.096C103.451 17.096 104.107 16.792 104.747 16.184L106.171 17.624C105.702 18.136 105.201 18.5253 104.667 18.792C104.134 19.0587 103.467 19.192 102.667 19.192ZM106.76 19V7.32H109.192V11.64C109.907 10.7227 110.744 10.264 111.704 10.264C112.621 10.264 113.336 10.5467 113.848 11.112C114.36 11.6773 114.616 12.456 114.616 13.448V19H112.184V14.216C112.184 13.6507 112.056 13.2187 111.8 12.92C111.544 12.6213 111.181 12.472 110.712 12.472C110.243 12.472 109.869 12.6213 109.592 12.92C109.325 13.2187 109.192 13.6507 109.192 14.216V19H106.76Z" fill="white"/>
<path d="M61.6503 39V30.6H67.5663V31.176H62.2743V34.62H67.0263V35.196H62.2743V39H61.6503ZM69.4773 39V32.88H70.0653V39H69.4773ZM69.4053 31.284V30.48H70.1373V31.284H69.4053ZM72.3816 39V32.88H72.9696V34.02C73.4576 33.164 74.1936 32.736 75.1776 32.736C75.9376 32.736 76.5336 32.972 76.9656 33.444C77.4056 33.908 77.6256 34.512 77.6256 35.256V39H77.0376V35.364C77.0376 34.724 76.8656 34.216 76.5216 33.84C76.1776 33.464 75.7016 33.276 75.0936 33.276C74.4856 33.276 73.9776 33.484 73.5696 33.9C73.1696 34.308 72.9696 34.828 72.9696 35.46V39H72.3816ZM81.601 39.144C80.977 39.144 80.425 38.972 79.945 38.628C79.473 38.284 79.237 37.808 79.237 37.2C79.237 36.576 79.481 36.088 79.969 35.736C80.457 35.384 81.105 35.208 81.913 35.208C82.601 35.208 83.277 35.296 83.941 35.472V35.208C83.941 34.6 83.765 34.136 83.413 33.816C83.061 33.496 82.565 33.336 81.925 33.336C81.285 33.336 80.645 33.5 80.005 33.828L79.789 33.312C80.549 32.96 81.273 32.784 81.961 32.784C82.801 32.784 83.445 33.008 83.893 33.456C84.309 33.872 84.517 34.448 84.517 35.184V39H83.941V37.98C83.389 38.756 82.609 39.144 81.601 39.144ZM81.637 38.592C82.277 38.592 82.821 38.416 83.269 38.064C83.725 37.704 83.953 37.252 83.953 36.708V36.012C83.233 35.828 82.541 35.736 81.877 35.736C81.237 35.736 80.741 35.868 80.389 36.132C80.037 36.388 79.861 36.74 79.861 37.188C79.861 37.612 80.033 37.952 80.377 38.208C80.729 38.464 81.149 38.592 81.637 38.592ZM86.6316 39V32.88H87.2196V34.02C87.7076 33.164 88.4436 32.736 89.4276 32.736C90.1876 32.736 90.7836 32.972 91.2156 33.444C91.6556 33.908 91.8756 34.512 91.8756 35.256V39H91.2876V35.364C91.2876 34.724 91.1156 34.216 90.7716 33.84C90.4276 33.464 89.9516 33.276 89.3436 33.276C88.7356 33.276 88.2276 33.484 87.8196 33.9C87.4196 34.308 87.2196 34.828 87.2196 35.46V39H86.6316ZM96.691 39.144C95.811 39.144 95.071 38.832 94.471 38.208C93.871 37.584 93.571 36.828 93.571 35.94C93.571 35.06 93.871 34.308 94.471 33.684C95.079 33.052 95.819 32.736 96.691 32.736C97.643 32.736 98.455 33.116 99.127 33.876L98.719 34.296C98.063 33.624 97.383 33.288 96.679 33.288C95.999 33.288 95.415 33.548 94.927 34.068C94.447 34.588 94.207 35.212 94.207 35.94C94.207 36.676 94.451 37.304 94.939 37.824C95.427 38.336 96.023 38.592 96.727 38.592C97.455 38.592 98.131 38.244 98.755 37.548L99.187 37.932C98.475 38.74 97.643 39.144 96.691 39.144ZM100.93 39V32.88H101.518V39H100.93ZM100.858 31.284V30.48H101.59V31.284H100.858ZM105.695 39.144C105.071 39.144 104.519 38.972 104.039 38.628C103.567 38.284 103.331 37.808 103.331 37.2C103.331 36.576 103.575 36.088 104.063 35.736C104.551 35.384 105.199 35.208 106.007 35.208C106.695 35.208 107.371 35.296 108.035 35.472V35.208C108.035 34.6 107.859 34.136 107.507 33.816C107.155 33.496 106.659 33.336 106.019 33.336C105.379 33.336 104.739 33.5 104.099 33.828L103.883 33.312C104.643 32.96 105.367 32.784 106.055 32.784C106.895 32.784 107.539 33.008 107.987 33.456C108.403 33.872 108.611 34.448 108.611 35.184V39H108.035V37.98C107.483 38.756 106.703 39.144 105.695 39.144ZM105.731 38.592C106.371 38.592 106.915 38.416 107.363 38.064C107.819 37.704 108.047 37.252 108.047 36.708V36.012C107.327 35.828 106.635 35.736 105.971 35.736C105.331 35.736 104.835 35.868 104.483 36.132C104.131 36.388 103.955 36.74 103.955 37.188C103.955 37.612 104.127 37.952 104.471 38.208C104.823 38.464 105.243 38.592 105.731 38.592ZM110.809 39V30.24H111.397V39H110.809ZM117.443 39V30.6H123.359V31.176H118.067V34.62H122.819V35.196H118.067V39H117.443ZM125.186 39V32.88H125.774V34.62C126.022 34.06 126.386 33.608 126.866 33.264C127.354 32.92 127.894 32.76 128.486 32.784V33.432H128.426C127.682 33.432 127.054 33.704 126.542 34.248C126.03 34.792 125.774 35.54 125.774 36.492V39H125.186ZM132.266 39.144C131.442 39.144 130.734 38.844 130.142 38.244C129.558 37.644 129.266 36.872 129.266 35.928C129.266 35.032 129.542 34.276 130.094 33.66C130.654 33.044 131.346 32.736 132.17 32.736C133.01 32.736 133.686 33.04 134.198 33.648C134.718 34.256 134.978 35.02 134.978 35.94C134.978 36.036 134.974 36.116 134.966 36.18H129.89C129.946 36.916 130.202 37.504 130.658 37.944C131.122 38.376 131.666 38.592 132.29 38.592C133.09 38.592 133.79 38.272 134.39 37.632L134.798 37.992C134.086 38.76 133.242 39.144 132.266 39.144ZM129.89 35.652H134.342C134.294 34.98 134.082 34.416 133.706 33.96C133.33 33.504 132.81 33.276 132.146 33.276C131.546 33.276 131.034 33.504 130.61 33.96C130.186 34.408 129.946 34.972 129.89 35.652ZM139.274 39.144C138.45 39.144 137.742 38.844 137.15 38.244C136.566 37.644 136.274 36.872 136.274 35.928C136.274 35.032 136.55 34.276 137.102 33.66C137.662 33.044 138.354 32.736 139.178 32.736C140.018 32.736 140.694 33.04 141.206 33.648C141.726 34.256 141.986 35.02 141.986 35.94C141.986 36.036 141.982 36.116 141.974 36.18H136.898C136.954 36.916 137.21 37.504 137.666 37.944C138.13 38.376 138.674 38.592 139.298 38.592C140.098 38.592 140.798 38.272 141.398 37.632L141.806 37.992C141.094 38.76 140.25 39.144 139.274 39.144ZM136.898 35.652H141.35C141.302 34.98 141.09 34.416 140.714 33.96C140.338 33.504 139.818 33.276 139.154 33.276C138.554 33.276 138.042 33.504 137.618 33.96C137.194 34.408 136.954 34.972 136.898 35.652ZM146.282 39.144C145.498 39.144 144.806 38.852 144.206 38.268C143.606 37.676 143.306 36.9 143.306 35.94C143.306 34.988 143.606 34.216 144.206 33.624C144.806 33.032 145.498 32.736 146.282 32.736C147.322 32.736 148.162 33.224 148.802 34.2V30.24H149.39V39H148.802V37.632C148.138 38.64 147.298 39.144 146.282 39.144ZM144.638 37.848C145.11 38.336 145.678 38.58 146.342 38.58C147.006 38.58 147.586 38.332 148.082 37.836C148.586 37.332 148.838 36.696 148.838 35.928C148.838 35.168 148.586 34.54 148.082 34.044C147.586 33.548 147.006 33.3 146.342 33.3C145.654 33.3 145.082 33.54 144.626 34.02C144.17 34.492 143.942 35.132 143.942 35.94C143.942 36.724 144.174 37.36 144.638 37.848ZM156.58 38.196C155.98 38.828 155.232 39.144 154.336 39.144C153.44 39.144 152.692 38.832 152.092 38.208C151.5 37.576 151.204 36.82 151.204 35.94C151.204 35.068 151.504 34.316 152.104 33.684C152.712 33.052 153.464 32.736 154.36 32.736C155.256 32.736 156 33.052 156.592 33.684C157.192 34.308 157.492 35.06 157.492 35.94C157.492 36.812 157.188 37.564 156.58 38.196ZM154.36 38.592C155.04 38.592 155.624 38.332 156.112 37.812C156.608 37.292 156.856 36.668 156.856 35.94C156.856 35.204 156.608 34.58 156.112 34.068C155.624 33.548 155.032 33.288 154.336 33.288C153.648 33.288 153.06 33.548 152.572 34.068C152.084 34.58 151.84 35.204 151.84 35.94C151.84 36.676 152.084 37.304 152.572 37.824C153.06 38.336 153.656 38.592 154.36 38.592ZM159.3 39V32.88H159.888V33.972C160.128 33.588 160.404 33.288 160.716 33.072C161.028 32.848 161.432 32.736 161.928 32.736C162.888 32.736 163.576 33.176 163.992 34.056C164.504 33.176 165.24 32.736 166.2 32.736C166.92 32.736 167.492 32.968 167.916 33.432C168.34 33.896 168.552 34.516 168.552 35.292V39H167.964V35.364C167.964 34.708 167.804 34.196 167.484 33.828C167.164 33.46 166.72 33.276 166.152 33.276C165.616 33.276 165.16 33.472 164.784 33.864C164.408 34.256 164.22 34.78 164.22 35.436V39H163.632V35.328C163.632 34.696 163.468 34.196 163.14 33.828C162.82 33.46 162.388 33.276 161.844 33.276C161.3 33.276 160.836 33.488 160.452 33.912C160.076 34.336 159.888 34.856 159.888 35.472V39H159.3Z" fill="white"/>
<defs>
<linearGradient id="paint0_linear_3384_2727" x1="40.7333" y1="48" x2="2.57778" y2="1.51111" gradientUnits="userSpaceOnUse">
<stop stop-color="#20222F"/>
<stop offset="1" stop-color="#4A4D62"/>
</linearGradient>
</defs>
</svg>
